<?xml version="1.0" encoding="UTF-8"?>
<svg width="100%" height="100%" viewBox="0 0 249 133" version="1.1" xmlns="http://www.w3.org/2000/svg" xmlns:xlink="http://www.w3.org/1999/xlink">
    <!-- Generator: Sketch 42 (36781) - http://www.bohemiancoding.com/sketch -->
    <title>macbook</title>
    <desc>Created with Sketch.</desc>
    <defs></defs>
    <g id="Page-1" stroke="none" stroke-width="1" fill="none" fill-rule="evenodd">
        <g id="Group" transform="translate(0.653000, -51.738000)">
            <g id="macbook" transform="translate(0.000000, 52.000000)">
                <rect id="Rectangle-path" fill="#FFFFFF" x="21.283" y="0.691" width="205.33" height="126.4"></rect>
                <rect id="Rectangle-path" fill="#ECECEC" x="21.283" y="121.74" width="205.33" height="1.2576"></rect>
                <path d="M0.894,122.89 C-0.2539,124.8909 0.25623,126.0629 0.894,127.171 C2.3005,129.6147 25.969,132.2613 30.294,132.2613 L217.624,132.2613 C221.9488,132.2613 245.557,129.5275 247.105,127.171 C248.1579,125.5685 247.5367,124.245 247.105,122.89 L0.894,122.89 Z" id="Shape" fill="#FFFFFF"></path>
                <rect id="Rectangle-path" fill="#B3B3B3" x="28.571" y="7.48" width="190.76" height="106.26"></rect>
                <path d="M99.59,123 L99.59,124.7989 C99.59,125.9837 100.28061,126.9378 101.1381,126.9378 L146.8631,126.9378 C147.72061,126.9378 148.4109,125.98366 148.4109,124.7989 L148.4109,123 L99.5899,123 L99.59,123 Z" id="Shape" fill="#E6E6E6"></path>
                <path d="M1.154,127.67 C3.7945,130.256 9.5394,132.2665 13.608,132.2665 L236.518,132.2665 C240.5869,132.2665 244.1962,130.2559 246.846,127.67 L1.154,127.67 Z" id="Shape" fill="#E6E6E6"></path>
                <rect id="Rectangle-path" fill="#CCCCCC" x="29.15" y="8.11" width="190.18" height="105.64"></rect>
            </g>
        </g>
    </g>
</svg>
