<?xml version="1.0" encoding="UTF-8"?>
<svg width="111px" height="87px" viewBox="0 0 111 87" version="1.1" xmlns="http://www.w3.org/2000/svg" xmlns:xlink="http://www.w3.org/1999/xlink">
    <!-- Generator: Sketch 42 (36781) - http://www.bohemiancoding.com/sketch -->
    <title>Shape</title>
    <desc>Created with Sketch.</desc>
    <defs></defs>
    <g id="Page-1" stroke="none" stroke-width="1" fill="none" fill-rule="evenodd">
        <g id="world-map-146505" transform="translate(-668.000000, -275.000000)" fill-rule="nonzero" stroke="#000000" fill="#FFFFFF">
            <g id="Group">
                <path d="M673.544,309.866 C672.869,310.765 672.419,320.445 671.969,321.57 C671.519,322.695 670.618,328.548 671.07,329.897 C671.522,331.246 672.194,336.2 671.745,337.776 C671.296,339.352 671.97,344.303 670.843,344.078 C669.719,343.852 669.27,344.304 669.27,344.978 C669.27,345.654 670.843,347.003 670.843,347.003 C670.843,347.003 673.546,347.004 674.671,346.778 C675.796,346.552 678.047,345.427 679.848,345.427 C681.649,345.427 682.775,344.076 684.349,344.076 C685.925,344.076 689.302,342.952 690.202,343.401 C691.102,343.85 692.452,340.7 694.028,341.376 C695.604,342.052 698.981,339.8 700.556,339.8 C702.131,339.8 702.807,337.323 704.608,337.775 C706.409,338.227 709.785,336.875 711.361,337.548 C712.934,338.225 715.412,335.298 716.537,337.548 C717.662,339.798 721.04,340.7 721.04,341.825 C721.04,342.95 720.812,345.427 720.812,345.427 L723.514,345.201 C723.514,345.201 727.789,342.5 728.466,342.5 C729.143,342.5 730.717,340.25 730.717,341.376 C730.717,342.5 729.365,344.978 728.916,346.102 C728.466,347.228 729.365,348.579 729.365,348.579 C729.365,348.579 731.618,349.704 730.717,351.729 C729.816,353.755 730.941,353.306 730.717,354.88 C730.491,356.456 730.717,355.78 731.615,356.68 C732.513,357.58 734.094,359.159 735.443,358.932 C736.792,358.705 737.243,357.357 738.369,358.032 C739.494,358.707 741.744,358.257 742.419,359.158 C743.097,360.057 738.144,362.308 746.697,358.483 C755.25,354.658 756.148,353.755 757.274,352.404 C758.4,351.053 759.753,349.704 760.651,348.803 C761.549,347.902 760.878,348.128 763.577,346.102 C766.278,344.077 766.278,344.977 768.756,341.15 C771.234,337.323 773.031,335.974 773.483,335.298 C773.935,334.622 774.833,334.398 775.058,331.695 C775.283,328.995 777.083,326.519 777.083,325.619 C777.083,324.719 777.758,323.37 777.533,321.793 C777.308,320.216 778.434,317.968 777.083,315.717 C775.732,313.466 777.758,312.567 775.732,311.664 C773.706,310.761 772.356,311.215 771.906,309.639 C771.456,308.063 769.654,308.288 768.979,304.012 C768.304,299.736 765.603,299.284 765.603,299.284 C765.603,299.284 762.902,298.159 763.577,297.71 C764.252,297.261 764.478,294.107 764.254,293.207 C764.028,292.307 764.028,290.281 763.354,288.932 C762.679,287.58 762.228,285.781 761.553,284.204 C760.878,282.627 759.753,282.178 759.302,280.378 C758.851,278.578 758.176,277.901 757.952,277.452 C757.725,277.002 757.274,274.752 756.826,277.226 C756.376,279.702 755.474,284.428 755.474,284.428 C755.474,284.428 753.673,288.256 752.998,289.381 C752.323,290.505 751.648,293.432 750.523,293.206 C749.398,292.98 748.72,294.333 747.822,294.106 C746.924,293.879 745.571,294.332 744.896,293.657 C744.221,292.982 742.42,291.181 741.519,290.955 C740.619,290.731 739.944,288.931 739.268,288.931 C738.592,288.931 737.467,287.354 737.693,286.454 C737.917,285.554 738.142,283.529 738.368,282.628 C738.592,281.728 739.944,279.701 739.944,279.701 C739.944,279.701 739.944,278.351 738.818,278.351 C737.692,278.351 737.467,278.351 734.991,278.125 C732.515,277.899 731.842,277.675 730.939,277.675 C730.036,277.675 731.841,277.225 729.364,277.9 C726.887,278.575 725.763,280.377 724.187,281.953 C722.614,283.528 723.963,283.077 722.614,283.528 C721.265,283.979 721.488,282.402 720.587,284.879 C719.686,287.356 721.038,288.029 720.36,288.48 C719.682,288.931 714.96,286.905 714.96,286.905 C714.96,286.905 716.085,286.679 715.184,285.554 C714.283,284.429 713.384,282.854 712.035,283.529 C710.686,284.204 709.556,284.655 708.658,285.78 C707.76,286.905 707.757,287.805 707.082,288.705 C706.407,289.605 704.607,289.605 704.381,290.506 C704.155,291.407 704.156,293.657 703.482,293.882 C702.807,294.108 702.582,292.984 701.907,292.758 C701.232,292.533 701.456,290.732 701.007,291.858 C700.558,292.984 700.107,292.757 699.432,294.558 C698.755,296.359 698.531,297.935 697.856,298.16 C697.181,298.385 697.856,298.61 695.829,299.736 C693.805,300.861 693.354,300.861 690.429,302.212 C687.504,303.563 688.179,303.563 686.153,303.787 C684.128,304.013 683.676,304.688 682.326,304.913 C680.974,305.138 680.076,305.362 678.724,306.713 C677.372,308.064 676.249,308.513 675.349,308.739 C674.449,308.965 673.544,309.866 673.544,309.866 L673.544,309.866 Z" id="Shape"></path>
            </g>
        </g>
    </g>
</svg>