<svg viewBox="0 0 111 87" xmlns="http://www.w3.org/2000/svg">
  <g id="Page-1" fill="none" fill-rule="evenodd">
    <g id="world-map-146505" fill-rule="nonzero" stroke="#000" fill="#FFF">
      <g id="Group">
        <path d="M5.544 34.866c-.675.899-1.125 10.579-1.575 11.704-.45 1.125-1.351 6.978-.899 8.327.452 1.349 1.124 6.303.675 7.879-.449 1.576.225 6.527-.902 6.302-1.124-.226-1.573.226-1.573.9 0 .676 1.573 2.025 1.573 2.025s2.703.001 3.828-.225 3.376-1.351 5.177-1.351c1.801 0 2.927-1.351 4.501-1.351 1.576 0 4.953-1.124 5.853-.675.9.449 2.25-2.701 3.826-2.025 1.576.676 4.953-1.576 6.528-1.576 1.575 0 2.251-2.477 4.052-2.025 1.801.452 5.177-.9 6.753-.227 1.573.677 4.051-2.25 5.176 0s4.503 3.152 4.503 4.277-.228 3.602-.228 3.602l2.702-.226s4.275-2.701 4.952-2.701c.677 0 2.251-2.25 2.251-1.124 0 1.124-1.352 3.602-1.801 4.726-.45 1.126.449 2.477.449 2.477s2.253 1.125 1.352 3.15c-.901 2.026.224 1.577 0 3.151-.226 1.576 0 .9.898 1.8s2.479 2.479 3.828 2.252c1.349-.227 1.8-1.575 2.926-.9 1.125.675 3.375.225 4.05 1.126.678.899-4.275 3.15 4.278-.675s9.451-4.728 10.577-6.079c1.126-1.351 2.479-2.7 3.377-3.601.898-.901.227-.675 2.926-2.701 2.701-2.025 2.701-1.125 5.179-4.952s4.275-5.176 4.727-5.852c.452-.676 1.35-.9 1.575-3.603.225-2.7 2.025-5.176 2.025-6.076 0-.9.675-2.249.45-3.826-.225-1.577.901-3.825-.45-6.076-1.351-2.251.675-3.15-1.351-4.053s-3.376-.449-3.826-2.025c-.45-1.576-2.252-1.351-2.927-5.627-.675-4.276-3.376-4.728-3.376-4.728s-2.701-1.125-2.026-1.574c.675-.449.901-3.603.677-4.503-.226-.9-.226-2.926-.9-4.275-.675-1.352-1.126-3.151-1.801-4.728s-1.8-2.026-2.251-3.826c-.451-1.8-1.126-2.477-1.35-2.926-.227-.45-.678-2.7-1.126-.226-.45 2.476-1.352 7.202-1.352 7.202s-1.801 3.828-2.476 4.953c-.675 1.124-1.35 4.051-2.475 3.825-1.125-.226-1.803 1.127-2.701.9-.898-.227-2.251.226-2.926-.449-.675-.675-2.476-2.476-3.377-2.702-.9-.224-1.575-2.024-2.251-2.024-.676 0-1.801-1.577-1.575-2.477.224-.9.449-2.925.675-3.826.224-.9 1.576-2.927 1.576-2.927s0-1.35-1.126-1.35-1.351 0-3.827-.226-3.149-.45-4.052-.45c-.903 0 .902-.45-1.575.225s-3.601 2.477-5.177 4.053c-1.573 1.575-.224 1.124-1.573 1.575-1.349.451-1.126-1.126-2.027 1.351-.901 2.477.451 3.15-.227 3.601-.678.451-5.4-1.575-5.4-1.575s1.125-.226.224-1.351-1.8-2.7-3.149-2.025c-1.349.675-2.479 1.126-3.377 2.251-.898 1.125-.901 2.025-1.576 2.925-.675.9-2.475.9-2.701 1.801-.226.901-.225 3.151-.899 3.376-.675.226-.9-.898-1.575-1.124-.675-.225-.451-2.026-.9-.9s-.9.899-1.575 2.7c-.677 1.801-.901 3.377-1.576 3.602-.675.225 0 .45-2.027 1.576-2.024 1.125-2.475 1.125-5.4 2.476-2.925 1.351-2.25 1.351-4.276 1.575-2.025.226-2.477.901-3.827 1.126-1.352.225-2.25.449-3.602 1.8-1.352 1.351-2.475 1.8-3.375 2.026-.9.226-1.805 1.127-1.805 1.127z" id="Shape" class="dedjhBlt_0"/>
      </g>
    </g>
  </g>
  <style>
    .dedjhBlt_0{stroke-dasharray:386 388;stroke-dashoffset:387;animation:dedjhBlt_draw 5000ms linear 0ms forwards;}@keyframes dedjhBlt_draw{100%{stroke-dashoffset:0;}}@keyframes dedjhBlt_fade{0%{stroke-opacity:1;}95.65217391304348%{stroke-opacity:1;}100%{stroke-opacity:0;}}
  </style>
</svg>
