<?xml version="1.0" encoding="UTF-8"?>
<svg width="456px" height="332px" viewBox="0 0 456 332" version="1.1" xmlns="http://www.w3.org/2000/svg" xmlns:xlink="http://www.w3.org/1999/xlink">
    <!-- Generator: Sketch 42 (36781) - http://www.bohemiancoding.com/sketch -->
    <title>Shape</title>
    <desc>Created with Sketch.</desc>
    <defs></defs>
    <g id="Page-1" stroke="none" stroke-width="1" fill="none" fill-rule="evenodd">
        <g id="world-map-146505" transform="translate(-312.000000, -16.000000)" fill-rule="nonzero" stroke="#000000" fill="#FFFFFF">
            <g id="Group">
                <path d="M346.725,131.376 L343.348,135.877 L341.098,138.128 L336.597,140.603 L335.921,142.629 C335.921,142.629 334.12,144.43 334.346,145.556 C334.572,146.682 334.572,148.707 334.572,148.707 C334.572,148.707 331.421,151.633 330.07,152.533 C328.719,153.433 326.918,155.459 326.918,155.459 C326.918,155.459 325.793,156.81 325.118,157.26 C324.443,157.71 323.318,159.06 322.417,160.411 C321.516,161.762 320.616,162.661 320.166,163.336 C319.716,164.011 318.365,165.587 317.69,168.063 C317.015,170.539 315.214,173.465 315.214,173.465 L314.763,174.59 C314.989,178.417 314.988,179.092 315.439,180.443 C315.89,181.794 316.34,181.342 315.889,184.269 C315.439,187.194 315.439,188.32 314.989,189.671 C314.539,191.022 313.188,193.496 312.739,194.623 C312.29,195.75 313.639,197.773 313.639,197.773 C313.639,197.773 314.315,200.7 313.864,201.375 C313.414,202.051 314.089,203.401 314.089,203.401 C314.089,203.401 316.79,204.976 317.691,205.877 C318.592,206.778 320.167,208.128 320.392,208.803 C320.617,209.478 322.418,212.63 322.643,213.305 C322.868,213.98 324.669,216.455 325.119,217.131 C325.569,217.807 327.82,220.283 327.82,220.283 C327.82,220.283 330.746,222.532 331.422,223.433 C332.098,224.334 334.123,224.783 334.797,225.458 C335.473,226.133 337.048,225.907 337.948,226.584 C338.848,227.261 340.649,226.133 341.55,226.584 C342.451,227.035 344.927,226.134 345.602,225.684 C346.277,225.234 347.852,223.659 348.978,224.333 C350.104,225.007 350.778,224.333 351.679,224.558 C352.58,224.783 353.929,223.659 354.829,223.659 C355.729,223.659 357.98,222.758 358.655,222.758 C359.33,222.758 361.582,221.406 362.483,221.406 C363.384,221.406 364.508,220.508 365.633,220.957 C366.758,221.406 366.308,220.058 368.334,220.732 C370.36,221.406 371.035,220.732 371.71,221.406 C372.386,222.082 373.287,221.408 373.962,222.308 C374.637,223.207 375.762,223.882 375.987,224.783 C376.212,225.684 377.562,226.585 377.562,226.585 L378.913,226.809 C378.913,226.809 380.715,225.459 381.164,226.36 C381.613,227.261 383.64,227.036 383.64,227.036 L385.665,229.286 L386.341,230.186 C386.341,230.186 387.692,233.788 387.466,235.138 C387.24,236.488 387.241,239.414 386.566,240.089 C385.891,240.765 385.441,243.691 385.441,243.691 C385.441,243.691 384.54,244.591 386.566,246.392 C388.592,248.193 389.943,249.768 390.618,250.667 C391.294,251.568 393.095,254.045 393.318,255.62 C393.544,257.195 393.994,258.095 394.895,260.121 C395.796,262.147 396.92,262.372 397.145,264.624 C397.37,266.876 397.82,266.875 397.595,268.449 C397.37,270.025 396.695,270.25 397.37,271.375 C398.045,272.5 398.944,274.527 398.721,275.202 C398.496,275.877 398.045,278.803 398.045,278.803 L397.595,280.154 L395.57,283.982 L394.219,286.006 C393.769,287.581 392.869,289.157 393.094,291.408 C393.318,293.659 391.969,293.658 393.769,295.908 C395.569,298.158 396.469,300.636 397.595,302.662 C398.721,304.687 399.396,306.713 399.62,308.063 C399.846,309.414 400.746,309.865 401.196,311.665 C401.646,313.465 401.871,314.365 401.871,315.491 C401.871,316.617 401.645,319.543 402.097,320.218 C402.549,320.893 402.772,322.92 402.997,323.82 C403.222,324.721 402.321,324.946 403.672,326.522 C405.023,328.098 405.923,328.997 406.823,330.123 C407.723,331.249 407.498,330.798 408.174,332.374 C408.85,333.95 409.749,334.851 409.975,336.2 C410.201,337.549 410.424,340.926 411.1,342.502 C411.776,344.078 412.675,345.654 412.675,345.654 C412.675,345.654 415.152,347.229 416.052,347.004 C416.951,346.779 418.753,344.755 420.104,345.429 C421.455,346.104 422.58,345.429 423.705,345.429 C424.83,345.429 425.956,344.078 427.082,344.078 C428.208,344.078 429.782,342.277 430.684,342.728 C431.586,343.179 432.708,342.276 433.834,341.151 C434.96,340.027 435.635,339.127 437.66,337.326 C439.685,335.525 439.461,335.524 440.811,334.399 C442.161,333.274 443.513,330.797 445.088,330.347 C446.663,329.897 447.113,328.323 447.563,327.197 C448.013,326.071 448.238,325.396 448.914,324.495 C449.59,323.594 449.139,324.723 450.265,321.795 C451.391,318.867 452.743,317.744 453.868,317.068 C454.993,316.392 455.668,315.043 456.343,314.817 C457.018,314.591 458.144,315.492 457.694,313.466 C457.245,311.441 457.694,308.515 457.245,307.84 C456.796,307.165 456.118,309.414 456.344,306.037 C456.57,302.66 459.045,299.285 459.045,299.285 C459.045,299.285 462.421,295.009 463.547,294.334 C464.673,293.659 464.897,292.984 466.474,292.083 C468.048,291.184 471.425,288.933 471.425,287.807 C471.425,286.681 472.776,283.755 472.776,283.079 C472.776,282.403 472.776,281.729 472.327,277.902 C471.878,274.075 472.776,274.976 471.426,271.375 C470.076,267.774 469.849,263.272 468.95,262.147 C468.051,261.022 468.499,258.094 468.499,257.195 C468.499,256.296 470.076,254.044 470.751,253.144 C471.426,252.243 474.352,248.641 474.352,248.641 C474.352,248.641 478.853,243.465 480.429,240.99 C482.005,238.513 483.58,236.263 484.705,235.363 C485.83,234.463 488.532,232.435 490.107,230.185 C491.682,227.935 494.834,223.659 495.06,222.982 C495.284,222.308 497.084,220.057 497.084,220.057 C497.084,220.057 499.56,217.13 500.011,215.555 C500.46,213.979 502.71,205.201 502.26,205.651 C501.81,206.101 499.11,206.551 498.209,206.776 C497.31,207.002 499.561,207.901 493.032,207.452 C486.503,207.003 483.13,208.127 483.13,208.127 C481.103,207.676 479.528,209.927 478.852,206.776 C478.176,203.625 477.726,201.825 476.377,199.574 C475.028,197.323 474.125,196.423 472.101,193.496 C470.076,190.571 470.299,191.92 468.498,189.671 C466.697,187.422 466.247,188.094 465.122,185.169 C463.997,182.243 463.097,183.369 461.746,179.317 C460.395,175.265 459.495,174.814 458.82,172.564 C458.145,170.314 457.245,169.637 456.794,167.612 C456.344,165.586 451.168,155.233 450.492,154.557 C449.816,153.883 448.691,150.28 448.916,150.956 C449.142,151.631 452.293,153.882 452.293,153.882 C452.293,153.882 454.093,153.206 454.769,153.206 C455.445,153.206 458.145,155.683 458.145,156.582 C458.145,157.481 462.874,161.76 463.998,164.911 C465.123,168.062 466.476,170.313 466.699,171.213 C466.922,172.113 469.175,175.715 470.076,177.066 C470.977,178.417 473.901,181.117 474.351,182.468 C474.801,183.819 479.079,188.32 479.079,191.246 C479.079,194.172 481.103,197.998 481.329,198.898 C481.555,199.798 485.605,200.925 485.605,200.925 L491.008,199.574 C491.008,199.574 499.11,194.396 500.011,194.396 C500.912,194.396 508.115,191.02 508.115,191.02 C508.115,191.02 511.04,188.32 513.065,186.745 C515.09,185.17 517.342,182.244 517.793,180.892 C518.244,179.54 519.143,179.317 520.943,177.29 C522.743,175.263 525.22,173.239 523.645,171.888 C522.07,170.537 521.168,170.988 518.918,168.737 C516.668,166.486 516.892,166.937 515.316,164.01 C513.74,161.085 515.541,157.708 512.164,161.085 C508.787,164.462 510.139,165.361 506.762,166.038 C503.387,166.712 502.035,168.963 500.46,166.712 C498.885,164.461 497.31,165.812 496.408,162.435 C495.506,159.058 494.832,158.833 494.608,157.484 C494.384,156.135 494.608,156.133 492.807,152.756 C491.006,149.379 492.357,144.203 493.482,147.129 C494.607,150.055 496.408,150.505 499.335,152.531 C502.26,154.556 503.612,156.133 506.312,156.358 C509.013,156.582 511.264,156.358 511.714,156.807 C512.164,157.256 512.614,156.583 513.74,157.032 C514.866,157.481 515.314,156.358 515.765,158.157 C516.216,159.956 518.691,160.183 519.816,161.308 C520.941,162.433 520.942,161.984 523.869,162.433 C526.796,162.882 530.848,162.884 530.848,162.884 L535.123,162.658 L540.075,163.107 C540.075,163.107 543.678,165.133 544.577,165.133 C545.476,165.133 545.702,167.61 547.953,168.96 C550.204,170.31 550.654,170.535 552.004,172.111 C553.354,173.687 553.13,174.362 554.93,175.937 C556.73,177.512 559.659,175.713 560.109,175.039 C560.557,174.363 562.808,173.238 562.36,175.039 C561.912,176.84 564.609,176.163 563.934,180.441 C563.259,184.719 562.808,183.591 563.934,186.518 C565.06,189.445 570.011,198.447 570.237,201.148 C570.463,203.849 571.812,202.949 572.037,205.426 C572.262,207.903 573.612,208.801 573.612,210.602 C573.612,212.403 575.189,212.852 575.413,214.204 C575.64,215.555 578.115,214.428 578.79,214.204 C579.466,213.978 582.616,211.052 582.616,211.052 C582.616,211.052 583.969,210.603 583.742,208.351 C583.515,206.099 583.742,206.551 583.742,203.175 C583.742,199.799 582.392,199.799 583.067,196.424 C583.742,193.049 585.542,191.021 585.993,189.446 C586.444,187.871 588.244,185.17 589.143,184.944 C590.042,184.718 594.996,182.244 596.122,180.667 C597.248,179.09 599.048,177.291 600.849,175.491 C602.65,173.691 605.8,171.44 606.476,172.115 C607.152,172.79 606.926,172.565 608.052,172.565 C609.178,172.565 611.203,173.466 612.778,173.691 C614.354,173.916 617.506,177.742 618.181,179.768 C618.856,181.794 618.406,181.343 620.882,184.27 C623.358,187.195 625.609,185.394 625.609,188.996 C625.609,192.598 625.609,192.372 626.735,193.723 C627.861,195.074 629.21,191.247 630.56,191.698 C631.91,192.149 632.135,191.248 633.26,194.849 C634.385,198.45 635.06,198.451 635.287,202.052 C635.511,205.653 635.061,202.277 635.061,205.202 C635.061,208.129 634.835,208.354 635.287,211.054 C635.739,213.754 637.31,214.657 637.087,215.107 C637.087,215.107 638.437,211.281 637.986,208.579 C637.535,205.877 637.986,202.053 639.112,200.928 C640.238,199.803 641.364,198.677 642.263,201.603 C643.164,204.528 643.614,202.278 645.639,205.654 C647.666,209.031 649.466,208.354 649.691,209.93 C649.916,211.506 651.044,211.732 652.617,213.081 C654.193,214.432 655.543,212.857 657.344,211.506 C659.145,210.155 664.096,205.203 664.323,203.177 C664.547,201.152 666.573,201.601 662.971,196.426 C659.369,191.251 659.369,189.448 655.543,186.297 C651.719,183.146 649.467,182.921 652.394,178.869 C655.321,174.817 656.671,172.117 658.471,173.243 C660.271,174.369 663.421,174.142 663.421,178.645 C663.421,183.148 662.521,188.098 665.672,182.696 C668.823,177.294 670.4,174.143 669.498,175.045 C668.596,175.947 671.524,173.244 671.524,173.244 C671.524,173.244 671.75,171.218 675.577,170.318 C679.404,169.418 680.527,168.967 681.879,168.292 C683.229,167.616 687.056,163.114 687.731,161.089 C688.406,159.064 690.207,155.462 689.757,153.887 C689.307,152.312 687.055,144.659 686.605,144.883 C686.156,145.109 686.381,145.109 683.456,141.958 C680.528,138.807 678.503,136.556 678.053,135.205 C677.603,133.854 676.477,133.629 677.827,131.829 C679.177,130.029 679.854,130.254 680.079,128.678 C680.304,127.102 682.103,125.752 678.727,126.878 C675.351,128.004 677.827,127.329 674.901,127.104 C671.975,126.879 664.323,128.679 668.15,123.953 C671.977,119.227 673.099,116.301 673.775,116.301 C674.451,116.301 677.828,112.474 678.052,116.075 C678.278,119.676 679.627,118.775 679.853,121.026 C680.079,123.277 684.58,118.551 684.58,118.551 C684.58,118.551 686.155,119.001 687.28,120.126 C688.405,121.251 688.406,124.853 688.406,124.853 C688.406,124.853 687.506,123.727 689.982,125.528 C692.458,127.329 695.158,126.428 695.158,130.255 C695.158,134.082 695.158,134.307 696.734,135.207 C698.31,136.107 699.884,135.658 701.237,134.532 C702.59,133.406 704.837,129.355 704.837,129.355 C704.837,129.355 705.062,127.779 701.461,125.528 C697.86,123.277 695.609,121.703 694.26,120.577 C692.911,119.451 693.359,116.076 694.708,114.724 C696.057,113.372 696.734,112.698 696.284,110.898 C695.834,109.098 696.96,107.746 700.336,107.971 C703.712,108.196 704.387,107.747 704.387,107.747 C704.387,107.747 705.064,108.196 705.064,106.846 C705.064,105.496 709.339,99.193 708.213,99.193 C707.087,99.193 708.441,97.618 707.763,95.142 C707.085,92.666 710.014,88.84 707.539,87.039 C705.064,85.238 704.387,84.337 702.812,81.637 C701.237,78.937 701.46,78.486 695.609,77.81 C689.758,77.134 687.056,79.161 685.705,77.361 C684.354,75.561 683.68,80.061 682.78,74.659 C681.88,69.257 684.131,65.655 684.131,65.655 C684.131,65.655 687.732,63.405 688.631,61.829 C689.53,60.253 693.132,59.578 696.061,60.704 C698.99,61.83 703.262,61.604 706.865,62.281 C710.466,62.955 710.241,65.206 712.042,62.281 C713.842,59.353 712.042,58.004 713.392,56.428 C714.742,54.852 716.318,52.376 717.443,53.951 C718.568,55.528 720.822,57.102 722.623,55.076 C724.423,53.051 725.098,52.826 725.098,52.826 L725.996,53.727 C725.996,53.727 728.022,52.6 728.022,54.625 C728.022,56.652 730.049,58.903 728.923,60.478 C727.797,62.053 726.223,61.829 726.223,65.655 C726.223,69.481 726.223,68.807 728.697,71.959 C731.174,75.109 732.749,72.408 733.199,75.785 C733.649,79.162 734.098,78.487 736.576,80.737 C739.054,82.987 738.6,82.987 740.402,84.338 C742.204,85.689 743.104,87.04 743.104,84.789 C743.104,82.538 743.329,81.413 743.104,79.387 C742.877,77.362 744.905,75.785 743.552,72.409 C742.199,69.033 743.328,69.258 740.627,66.782 C737.926,64.306 736.124,67.233 735.226,63.631 C734.328,60.029 739.501,58.454 740.853,58.004 C742.205,57.554 744.227,54.853 744.677,56.654 C745.127,58.455 741.302,64.982 747.83,58.004 C754.358,51.026 751.431,53.953 751.431,53.953 C751.431,53.953 754.807,53.503 755.482,53.953 C756.156,54.404 757.96,51.927 757.282,52.153 C756.604,52.379 750.082,48.551 750.082,48.551 L745.353,45.851 C745.353,45.851 746.93,44.725 748.055,44.951 C749.18,45.177 749.407,42.7 750.533,42.474 C751.659,42.248 759.31,44.051 760.887,44.951 C762.464,45.851 768.088,46.076 767.412,45.626 C766.736,45.176 763.137,42.475 762.911,41.574 C762.687,40.674 754.808,38.873 752.333,39.098 C749.856,39.322 747.607,39.997 745.581,39.322 C743.555,38.647 740.629,36.846 739.053,36.846 C737.477,36.846 717.671,33.02 716.771,33.245 C715.871,33.47 714.519,37.746 713.844,37.071 C713.169,36.396 712.044,36.395 708.891,35.495 C705.738,34.595 701.464,33.919 695.836,33.47 C690.208,33.021 686.385,33.92 684.809,32.119 C683.233,30.318 679.858,30.994 676.031,30.768 C672.205,30.544 667.703,30.768 665.677,30.768 C663.651,30.768 658.926,30.544 657.8,30.318 C656.674,30.092 655.324,28.517 653.974,28.293 C652.622,28.067 652.847,27.618 650.147,27.168 C647.447,26.718 647.671,23.792 646.771,26.267 C645.871,28.744 646.32,28.068 644.97,28.968 C643.62,29.868 642.269,31.669 641.368,31.669 C640.467,31.669 636.868,31.894 636.191,31.444 C635.514,30.994 634.39,30.544 632.139,30.544 C629.888,30.544 629.888,30.768 626.962,30.318 C624.036,29.868 621.785,30.092 619.084,28.743 C616.383,27.394 616.383,26.492 614.132,26.717 C611.881,26.942 611.883,26.267 608.73,26.267 C605.577,26.267 601.754,28.068 599.727,28.293 C597.703,28.518 593.201,28.067 591.625,27.392 C590.049,26.717 589.599,25.142 583.746,25.816 C577.894,26.492 574.518,26.492 575.643,24.691 C576.768,22.89 578.119,21.09 578.794,20.865 C579.47,20.64 581.044,19.515 579.918,19.065 C578.794,18.614 577.668,17.94 574.968,17.714 C572.268,17.488 572.49,18.614 568.44,18.164 C564.39,17.714 570.691,16.589 562.364,16.814 C554.036,17.04 552.01,17.714 551.11,17.714 C550.21,17.714 549.083,15.914 546.833,18.614 C544.583,21.314 541.429,22.89 536.929,23.115 C532.429,23.34 532.202,22.665 527.927,24.24 C523.652,25.815 520.948,23.79 521.849,27.391 C522.75,30.992 523.875,32.343 523.875,33.018 C523.875,33.693 521.849,38.195 519.374,35.494 C516.899,32.793 512.395,22.214 514.421,29.417 C516.446,36.619 520.947,39.096 516.672,40.221 C512.397,41.346 512.844,39.771 512.169,39.32 C511.495,38.87 512.169,35.719 511.944,33.918 C511.719,32.117 511.269,30.992 510.369,30.092 C509.469,29.192 509.693,27.841 507.893,27.391 C506.093,26.941 507.668,26.04 504.742,26.04 C501.816,26.04 499.341,24.239 500.016,28.291 C500.691,32.343 501.365,29.642 503.165,33.468 C504.965,37.294 508.342,34.593 505.867,37.294 C503.391,39.995 496.864,39.095 495.288,37.97 C493.712,36.845 494.163,38.42 491.235,36.394 C488.307,34.368 489.211,32.792 485.835,34.368 C482.459,35.944 481.333,38.87 479.982,37.744 C478.631,36.618 475.481,39.319 474.355,37.97 C473.229,36.621 468.727,36.619 467.828,37.97 C466.929,39.321 464.226,39.095 460.4,40.896 C456.574,42.697 457.698,41.12 452.972,44.947 C448.246,48.774 445.543,51.924 443.969,49.448 C442.393,46.973 433.839,42.696 437.216,42.02 C440.593,41.344 442.168,39.995 443.969,41.57 C445.77,43.145 448.697,42.696 449.145,41.57 C449.593,40.444 451.622,39.319 448.92,37.969 C446.218,36.619 445.994,37.518 441.718,35.943 C437.441,34.367 441.718,34.818 435.865,33.917 C430.012,33.016 427.536,32.567 425.961,32.117 C424.386,31.667 422.135,32.117 419.885,31.892 C417.635,31.667 416.059,31.217 414.032,31.442 C412.007,31.667 410.882,31.217 408.18,33.243 C405.478,35.269 403.452,36.169 401.652,37.744 C399.852,39.319 395.126,42.471 393.775,43.597 C392.424,44.723 387.697,48.323 387.247,49.674 C386.797,51.025 387.697,52.15 385.896,53.05 C384.095,53.95 382.295,53.95 380.944,54.175 C379.593,54.4 380.944,52.149 379.593,54.4 C378.242,56.651 378.693,64.754 379.818,63.628 C380.943,62.502 380.268,58.902 385.22,62.279 C390.172,65.656 393.324,65.204 393.098,68.355 C392.872,71.506 396.474,71.281 396.924,71.957 C397.374,72.631 399.625,71.056 399.625,71.056 C399.625,71.056 404.577,67.905 404.577,66.33 C404.577,64.755 407.728,61.153 407.728,61.153 C407.728,61.153 405.476,60.028 405.476,57.777 C405.476,55.526 406.153,54.85 406.602,52.599 C407.051,50.348 404.126,52.6 410.879,48.322 C417.632,44.044 418.081,46.973 418.081,46.973 C418.081,46.973 418.98,47.873 417.855,49.223 C416.73,50.573 414.704,54.176 414.254,54.625 C413.804,55.074 416.28,58.677 417.404,58.677 C418.53,58.677 420.781,57.776 422.132,58.001 C423.483,58.227 425.733,57.327 426.408,57.777 C427.084,58.227 428.659,59.577 427.533,60.703 C426.407,61.829 423.931,63.178 422.132,62.729 C420.333,62.28 417.629,59.127 419.205,63.629 C420.781,68.131 418.98,69.256 417.629,69.031 C416.28,68.806 413.353,66.556 413.803,69.932 C414.253,73.308 410.878,75.558 410.202,75.558 C409.526,75.558 408.177,75.333 408.177,75.333 C408.177,75.333 406.15,75.107 405.026,75.107 C403.9,75.107 401.649,76.232 400.974,77.133 C400.298,78.033 399.398,77.359 398.273,77.359 C397.148,77.359 398.273,76.008 396.022,75.558 C393.771,75.108 392.421,74.658 391.071,75.558 C389.721,76.458 387.695,76.908 386.794,76.233 C385.893,75.558 387.245,73.981 385.443,74.883 C383.641,75.785 382.292,78.259 381.617,78.485 C380.942,78.709 383.643,78.485 380.942,78.709 C378.241,78.935 377.116,79.611 375.765,80.06 C374.414,80.509 376.215,83.211 373.739,84.111 C371.263,85.011 373.065,82.986 370.588,85.011 C368.112,87.038 367.661,88.838 366.762,89.063 C365.861,89.289 366.087,89.738 364.061,89.963 C362.035,90.188 362.261,90.413 361.134,90.638 C360.007,90.863 361.36,91.314 358.884,90.863 C356.408,90.412 354.607,91.314 355.057,92.214 C355.507,93.114 363.835,95.59 357.533,95.365 C351.231,95.14 353.257,96.265 354.607,97.165 C355.957,98.065 356.632,98.965 357.308,99.191 C357.984,99.417 359.108,102.118 359.108,102.118 C359.108,102.118 360.909,101.892 359.784,103.468 C358.659,105.044 360.234,105.494 359.108,107.52 C357.982,109.546 357.983,108.195 357.083,108.645 C356.183,109.095 354.832,110.671 352.355,109.32 C349.878,107.969 348.08,107.294 345.153,107.07 C342.227,106.844 344.252,106.395 342.227,107.969 C340.201,109.546 339.751,111.346 339.977,113.371 C340.202,115.396 340.427,118.098 339.751,119.449 C339.075,120.8 339.076,122.15 339.525,124.176 C339.976,126.201 341.327,127.103 341.327,127.103 C341.327,127.103 344.478,127.552 345.153,127.778 C345.828,128.004 347.179,127.328 348.979,128.452 C350.78,129.578 352.581,130.029 353.706,128.678 C354.831,127.327 359.333,125.752 360.685,124.402 C362.037,123.052 362.935,122.602 362.26,121.251 C361.585,119.9 363.611,116.524 364.736,115.849 C365.861,115.174 368.337,114.498 368.337,114.498 L371.038,110.447 C371.038,110.447 373.289,107.97 374.414,108.196 C375.539,108.422 381.841,110.673 381.392,107.747 C380.943,104.821 381.842,103.92 382.517,105.045 C383.192,106.17 384.993,105.72 384.993,105.72 C384.993,105.72 385.893,105.271 386.568,105.946 C387.243,106.62 388.143,109.548 389.494,110.222 C390.845,110.898 391.97,111.573 392.871,112.022 C393.772,112.471 394.672,112.022 396.473,113.598 C398.274,115.174 400.074,116.075 400.298,116.749 C400.525,117.424 402.1,119 402.1,119 C402.1,119 403.675,119.45 403.225,120.351 C402.775,121.252 400.525,123.953 399.399,124.402 C398.273,124.851 395.348,123.951 396.473,124.852 C397.597,125.752 399.174,126.878 399.849,126.202 C400.525,125.527 404.8,121.025 404.8,121.025 C404.8,121.025 404.575,121.25 404.8,119.899 C405.025,118.548 404.8,116.974 405.926,117.649 C407.051,118.325 407.727,119.225 408.177,118.325 C408.627,117.425 409.077,117.875 407.951,117.2 C406.825,116.525 404.125,112.698 402.774,112.473 C401.423,112.248 398.046,109.996 398.046,109.996 C398.046,109.996 397.372,109.321 395.796,107.521 C394.22,105.721 393.771,106.17 393.319,104.594 C392.867,103.018 391.518,100.993 393.995,101.443 C396.472,101.893 398.046,103.468 400.297,104.819 C402.548,106.17 402.099,106.619 404.124,107.97 C406.149,109.321 406.376,110.672 407.95,110.447 C409.525,110.222 411.327,111.347 411.327,113.373 C411.327,115.399 411.776,117.649 412.226,118.1 C412.676,118.551 414.026,119.451 414.477,120.351 C414.928,121.251 415.828,123.502 416.502,124.402 C417.178,125.302 417.853,125.978 418.528,127.104 C419.203,128.229 419.428,126.878 420.103,127.329 C420.779,127.779 421.679,127.553 421.679,126.653 C421.679,125.753 421.903,124.177 421.903,124.177 C421.903,124.177 425.056,123.277 424.156,122.826 C423.256,122.375 420.553,119.675 420.779,118.775 C421.005,117.875 420.779,116.075 421.903,116.3 C423.029,116.524 424.155,118.55 426.631,116.749 C429.107,114.948 432.033,114.048 431.132,116.749 C430.231,119.45 431.359,119.899 431.132,122.826 C430.908,125.753 432.034,124.852 433.61,126.428 C435.186,128.004 436.31,128.23 437.435,128.679 C438.56,129.128 440.361,128.905 442.163,129.13 C443.965,129.355 445.089,128.454 446.665,128.905 C448.239,129.355 451.841,128.679 452.517,129.13 C453.193,129.581 455.894,128.23 456.118,129.805 C456.343,131.381 457.244,129.58 456.569,133.181 C455.894,136.782 454.993,139.258 454.993,139.258 C452.517,143.985 451.617,145.111 450.491,145.336 C449.367,145.561 448.691,146.236 446.666,146.011 C444.64,145.785 442.164,146.011 439.238,145.336 C436.312,144.661 430.909,146.011 428.659,144.66 C426.409,143.309 423.257,144.435 421.905,142.86 C420.553,141.285 418.305,141.509 417.404,140.609 C416.503,139.709 416.054,137.234 416.054,140.835 C416.054,144.436 414.028,144.661 413.578,146.462 C413.128,148.263 414.252,147.362 411.776,147.137 C409.3,146.911 408.625,148.262 405.024,145.562 C401.423,142.862 399.622,142.861 397.822,141.735 C396.022,140.609 394.22,143.76 392.42,140.16 C390.62,136.56 388.143,139.484 387.918,136.558 C387.693,133.631 387.918,133.858 388.143,132.057 C388.368,130.256 390.844,128.681 389.719,128.006 C388.594,127.331 389.493,126.205 387.918,126.881 C386.343,127.557 384.092,127.781 382.291,128.456 C380.49,129.132 386.342,128.456 377.564,129.132 C368.786,129.808 366.309,130.707 366.309,130.707 C366.309,130.707 365.634,130.257 364.508,131.157 C363.382,132.057 361.807,133.408 360.232,132.733 C358.657,132.057 357.756,132.282 356.406,132.508 C355.056,132.734 354.156,131.383 352.58,132.508 C351.004,133.632 349.204,134.083 348.528,133.632 C347.851,133.176 346.725,131.376 346.725,131.376 L346.725,131.376 Z" id="Shape"></path>
            </g>
        </g>
    </g>
</svg>