<svg viewBox="0 0 456 332" xmlns="http://www.w3.org/2000/svg">
  <g id="Page-1" fill="none" fill-rule="evenodd">
    <g id="world-map-146505" fill-rule="nonzero" stroke="#000" fill="#FFF">
      <g id="Group">
        <path d="M34.725 115.376l-3.377 4.501-2.25 2.251-4.501 2.475-.676 2.026s-1.801 1.801-1.575 2.927c.226 1.126.226 3.151.226 3.151s-3.151 2.926-4.502 3.826c-1.351.9-3.152 2.926-3.152 2.926s-1.125 1.351-1.8 1.801c-.675.45-1.8 1.8-2.701 3.151-.901 1.351-1.801 2.25-2.251 2.925-.45.675-1.801 2.251-2.476 4.727-.675 2.476-2.476 5.402-2.476 5.402l-.451 1.125c.226 3.827.225 4.502.676 5.853.451 1.351.901.899.45 3.826-.45 2.925-.45 4.051-.9 5.402s-1.801 3.825-2.25 4.952c-.449 1.127.9 3.15.9 3.15s.676 2.927.225 3.602c-.45.676.225 2.026.225 2.026s2.701 1.575 3.602 2.476c.901.901 2.476 2.251 2.701 2.926.225.675 2.026 3.827 2.251 4.502.225.675 2.026 3.15 2.476 3.826.45.676 2.701 3.152 2.701 3.152s2.926 2.249 3.602 3.15c.676.901 2.701 1.35 3.375 2.025.676.675 2.251.449 3.151 1.126.9.677 2.701-.451 3.602 0 .901.451 3.377-.45 4.052-.9.675-.45 2.25-2.025 3.376-1.351 1.126.674 1.8 0 2.701.225s2.25-.899 3.15-.899c.9 0 3.151-.901 3.826-.901.675 0 2.927-1.352 3.828-1.352.901 0 2.025-.898 3.15-.449s.675-.899 2.701-.225 2.701 0 3.376.674c.676.676 1.577.002 2.252.902.675.899 1.8 1.574 2.025 2.475.225.901 1.575 1.802 1.575 1.802l1.351.224s1.802-1.35 2.251-.449c.449.901 2.476.676 2.476.676l2.025 2.25.676.9s1.351 3.602 1.125 4.952c-.226 1.35-.225 4.276-.9 4.951-.675.676-1.125 3.602-1.125 3.602s-.901.9 1.125 2.701c2.026 1.801 3.377 3.376 4.052 4.275.676.901 2.477 3.378 2.7 4.953.226 1.575.676 2.475 1.577 4.501.901 2.026 2.025 2.251 2.25 4.503.225 2.252.675 2.251.45 3.825-.225 1.576-.9 1.801-.225 2.926.675 1.125 1.574 3.152 1.351 3.827-.225.675-.676 3.601-.676 3.601l-.45 1.351-2.025 3.828-1.351 2.024c-.45 1.575-1.35 3.151-1.125 5.402.224 2.251-1.125 2.25.675 4.5s2.7 4.728 3.826 6.754c1.126 2.025 1.801 4.051 2.025 5.401.226 1.351 1.126 1.802 1.576 3.602.45 1.8.675 2.7.675 3.826s-.226 4.052.226 4.727c.452.675.675 2.702.9 3.602.225.901-.676 1.126.675 2.702s2.251 2.475 3.151 3.601c.9 1.126.675.675 1.351 2.251.676 1.576 1.575 2.477 1.801 3.826.226 1.349.449 4.726 1.125 6.302.676 1.576 1.575 3.152 1.575 3.152s2.477 1.575 3.377 1.35c.899-.225 2.701-2.249 4.052-1.575 1.351.675 2.476 0 3.601 0s2.251-1.351 3.377-1.351 2.7-1.801 3.602-1.35c.902.451 2.024-.452 3.15-1.577 1.126-1.124 1.801-2.024 3.826-3.825 2.025-1.801 1.801-1.802 3.151-2.927 1.35-1.125 2.702-3.602 4.277-4.052 1.575-.45 2.025-2.024 2.475-3.15.45-1.126.675-1.801 1.351-2.702.676-.901.225.228 1.351-2.7 1.126-2.928 2.478-4.051 3.603-4.727 1.125-.676 1.8-2.025 2.475-2.251.675-.226 1.801.675 1.351-1.351-.449-2.025 0-4.951-.449-5.626-.449-.675-1.127 1.574-.901-1.803.226-3.377 2.701-6.752 2.701-6.752s3.376-4.276 4.502-4.951c1.126-.675 1.35-1.35 2.927-2.251 1.574-.899 4.951-3.15 4.951-4.276s1.351-4.052 1.351-4.728c0-.676 0-1.35-.449-5.177-.449-3.827.449-2.926-.901-6.527s-1.577-8.103-2.476-9.228-.451-4.053-.451-4.952 1.577-3.151 2.252-4.051c.675-.901 3.601-4.503 3.601-4.503s4.501-5.176 6.077-7.651c1.576-2.477 3.151-4.727 4.276-5.627 1.125-.9 3.827-2.928 5.402-5.178 1.575-2.25 4.727-6.526 4.953-7.203.224-.674 2.024-2.925 2.024-2.925s2.476-2.927 2.927-4.502c.449-1.576 2.699-10.354 2.249-9.904-.45.45-3.15.9-4.051 1.125-.899.226 1.352 1.125-5.177.676-6.529-.449-9.902.675-9.902.675-2.027-.451-3.602 1.8-4.278-1.351-.676-3.151-1.126-4.951-2.475-7.202-1.349-2.251-2.252-3.151-4.276-6.078-2.025-2.925-1.802-1.576-3.603-3.825-1.801-2.249-2.251-1.577-3.376-4.502-1.125-2.926-2.025-1.8-3.376-5.852-1.351-4.052-2.251-4.503-2.926-6.753-.675-2.25-1.575-2.927-2.026-4.952-.45-2.026-5.626-12.379-6.302-13.055-.676-.674-1.801-4.277-1.576-3.601.226.675 3.377 2.926 3.377 2.926s1.8-.676 2.476-.676c.676 0 3.376 2.477 3.376 3.376s4.729 5.178 5.853 8.329c1.125 3.151 2.478 5.402 2.701 6.302.223.9 2.476 4.502 3.377 5.853.901 1.351 3.825 4.051 4.275 5.402.45 1.351 4.728 5.852 4.728 8.778s2.024 6.752 2.25 7.652c.226.9 4.276 2.027 4.276 2.027l5.403-1.351s8.102-5.178 9.003-5.178c.901 0 8.104-3.376 8.104-3.376s2.925-2.7 4.95-4.275c2.025-1.575 4.277-4.501 4.728-5.853.451-1.352 1.35-1.575 3.15-3.602 1.8-2.027 4.277-4.051 2.702-5.402-1.575-1.351-2.477-.9-4.727-3.151-2.25-2.251-2.026-1.8-3.602-4.727-1.576-2.925.225-6.302-3.152-2.925-3.377 3.377-2.025 4.276-5.402 4.953-3.375.674-4.727 2.925-6.302.674-1.575-2.251-3.15-.9-4.052-4.277-.902-3.377-1.576-3.602-1.8-4.951-.224-1.349 0-1.351-1.801-4.728s-.45-8.553.675-5.627c1.125 2.926 2.926 3.376 5.853 5.402 2.925 2.025 4.277 3.602 6.977 3.827 2.701.224 4.952 0 5.402.449.45.449.9-.224 2.026.225s1.574-.674 2.025 1.125c.451 1.799 2.926 2.026 4.051 3.151s1.126.676 4.053 1.125c2.927.449 6.979.451 6.979.451l4.275-.226 4.952.449s3.603 2.026 4.502 2.026c.899 0 1.125 2.477 3.376 3.827s2.701 1.575 4.051 3.151c1.35 1.576 1.126 2.251 2.926 3.826 1.8 1.575 4.729-.224 5.179-.898.448-.676 2.699-1.801 2.251 0-.448 1.801 2.249 1.124 1.574 5.402-.675 4.278-1.126 3.15 0 6.077s6.077 11.929 6.303 14.63c.226 2.701 1.575 1.801 1.8 4.278.225 2.477 1.575 3.375 1.575 5.176 0 1.801 1.577 2.25 1.801 3.602.227 1.351 2.702.224 3.377 0 .676-.226 3.826-3.152 3.826-3.152s1.353-.449 1.126-2.701c-.227-2.252 0-1.8 0-5.176 0-3.376-1.35-3.376-.675-6.751.675-3.375 2.475-5.403 2.926-6.978.451-1.575 2.251-4.276 3.15-4.502.899-.226 5.853-2.7 6.979-4.277 1.126-1.577 2.926-3.376 4.727-5.176 1.801-1.8 4.951-4.051 5.627-3.376.676.675.45.45 1.576.45 1.126 0 3.151.901 4.726 1.126 1.576.225 4.728 4.051 5.403 6.077.675 2.026.225 1.575 2.701 4.502 2.476 2.925 4.727 1.124 4.727 4.726s0 3.376 1.126 4.727c1.126 1.351 2.475-2.476 3.825-2.025 1.35.451 1.575-.45 2.7 3.151 1.125 3.601 1.8 3.602 2.027 7.203.224 3.601-.226.225-.226 3.15 0 2.927-.226 3.152.226 5.852s2.023 3.603 1.8 4.053c0 0 1.35-3.826.899-6.528-.451-2.702 0-6.526 1.126-7.651s2.252-2.251 3.151.675c.901 2.925 1.351.675 3.376 4.051 2.027 3.377 3.827 2.7 4.052 4.276.225 1.576 1.353 1.802 2.926 3.151 1.576 1.351 2.926-.224 4.727-1.575 1.801-1.351 6.752-6.303 6.979-8.329.224-2.025 2.25-1.576-1.352-6.751-3.602-5.175-3.602-6.978-7.428-10.129-3.824-3.151-6.076-3.376-3.149-7.428 2.927-4.052 4.277-6.752 6.077-5.626 1.8 1.126 4.95.899 4.95 5.402s-.9 9.453 2.251 4.051c3.151-5.402 4.728-8.553 3.826-7.651-.902.902 2.026-1.801 2.026-1.801s.226-2.026 4.053-2.926c3.827-.9 4.95-1.351 6.302-2.026 1.35-.676 5.177-5.178 5.852-7.203.675-2.025 2.476-5.627 2.026-7.202-.45-1.575-2.702-9.228-3.152-9.004-.449.226-.224.226-3.149-2.925-2.928-3.151-4.953-5.402-5.403-6.753-.45-1.351-1.576-1.576-.226-3.376 1.35-1.8 2.027-1.575 2.252-3.151.225-1.576 2.024-2.926-1.352-1.8-3.376 1.126-.9.451-3.826.226s-10.578 1.575-6.751-3.151c3.827-4.726 4.949-7.652 5.625-7.652.676 0 4.053-3.827 4.277-.226.226 3.601 1.575 2.7 1.801 4.951.226 2.251 4.727-2.475 4.727-2.475s1.575.45 2.7 1.575c1.125 1.125 1.126 4.727 1.126 4.727s-.9-1.126 1.576.675 5.176.9 5.176 4.727c0 3.827 0 4.052 1.576 4.952 1.576.9 3.15.451 4.503-.675 1.353-1.126 3.6-5.177 3.6-5.177s.225-1.576-3.376-3.827-5.852-3.825-7.201-4.951c-1.349-1.126-.901-4.501.448-5.853 1.349-1.352 2.026-2.026 1.576-3.826-.45-1.8.676-3.152 4.052-2.927 3.376.225 4.051-.224 4.051-.224s.677.449.677-.901 4.275-7.653 3.149-7.653c-1.126 0 .228-1.575-.45-4.051s2.251-6.302-.224-8.103c-2.475-1.801-3.152-2.702-4.727-5.402-1.575-2.7-1.352-3.151-7.203-3.827-5.851-.676-8.553 1.351-9.904-.449-1.351-1.8-2.025 2.7-2.925-2.702-.9-5.402 1.351-9.004 1.351-9.004s3.601-2.25 4.5-3.826 4.501-2.251 7.43-1.125c2.929 1.126 7.201.9 10.804 1.577 3.601.674 3.376 2.925 5.177 0 1.8-2.928 0-4.277 1.35-5.853 1.35-1.576 2.926-4.052 4.051-2.477 1.125 1.577 3.379 3.151 5.18 1.125 1.8-2.025 2.475-2.25 2.475-2.25l.898.901s2.026-1.127 2.026.898c0 2.027 2.027 4.278.901 5.853-1.126 1.575-2.7 1.351-2.7 5.177 0 3.826 0 3.152 2.474 6.304 2.477 3.15 4.052.449 4.502 3.826.45 3.377.899 2.702 3.377 4.952 2.478 2.25 2.024 2.25 3.826 3.601s2.702 2.702 2.702.451.225-3.376 0-5.402c-.227-2.025 1.801-3.602.448-6.978s-.224-3.151-2.925-5.627c-2.701-2.476-4.503.451-5.401-3.151-.898-3.602 4.275-5.177 5.627-5.627 1.352-.45 3.374-3.151 3.824-1.35.45 1.801-3.375 8.328 3.153 1.35 6.528-6.978 3.601-4.051 3.601-4.051s3.376-.45 4.051 0c.674.451 2.478-2.026 1.8-1.8-.678.226-7.2-3.602-7.2-3.602l-4.729-2.7s1.577-1.126 2.702-.9c1.125.226 1.352-2.251 2.478-2.477 1.126-.226 8.777 1.577 10.354 2.477 1.577.9 7.201 1.125 6.525.675-.676-.45-4.275-3.151-4.501-4.052-.224-.9-8.103-2.701-10.578-2.476-2.477.224-4.726.899-6.752.224s-4.952-2.476-6.528-2.476c-1.576 0-21.382-3.826-22.282-3.601-.9.225-2.252 4.501-2.927 3.826-.675-.675-1.8-.676-4.953-1.576-3.153-.9-7.427-1.576-13.055-2.025-5.628-.449-9.451.45-11.027-1.351-1.576-1.801-4.951-1.125-8.778-1.351-3.826-.224-8.328 0-10.354 0s-6.751-.224-7.877-.45c-1.126-.226-2.476-1.801-3.826-2.025-1.352-.226-1.127-.675-3.827-1.125-2.7-.45-2.476-3.376-3.376-.901-.9 2.477-.451 1.801-1.801 2.701-1.35.9-2.701 2.701-3.602 2.701-.901 0-4.5.225-5.177-.225-.677-.45-1.801-.9-4.052-.9-2.251 0-2.251.224-5.177-.226-2.926-.45-5.177-.226-7.878-1.575-2.701-1.349-2.701-2.251-4.952-2.026-2.251.225-2.249-.45-5.402-.45s-6.976 1.801-9.003 2.026c-2.024.225-6.526-.226-8.102-.901-1.576-.675-2.026-2.25-7.879-1.576-5.852.676-9.228.676-8.103-1.125 1.125-1.801 2.476-3.601 3.151-3.826.676-.225 2.25-1.35 1.124-1.8-1.124-.451-2.25-1.125-4.95-1.351-2.7-.226-2.478.9-6.528.45-4.05-.45 2.251-1.575-6.076-1.35-8.328.226-10.354.9-11.254.9-.9 0-2.027-1.8-4.277.9s-5.404 4.276-9.904 4.501c-4.5.225-4.727-.45-9.002 1.125s-6.979-.45-6.078 3.151c.901 3.601 2.026 4.952 2.026 5.627 0 .675-2.026 5.177-4.501 2.476-2.475-2.701-6.979-13.28-4.953-6.077 2.025 7.202 6.526 9.679 2.251 10.804s-3.828-.45-4.503-.901c-.674-.45 0-3.601-.225-5.402-.225-1.801-.675-2.926-1.575-3.826-.9-.9-.676-2.251-2.476-2.701-1.8-.45-.225-1.351-3.151-1.351-2.926 0-5.401-1.801-4.726 2.251.675 4.052 1.349 1.351 3.149 5.177 1.8 3.826 5.177 1.125 2.702 3.826-2.476 2.701-9.003 1.801-10.579.676-1.576-1.125-1.125.45-4.053-1.576-2.928-2.026-2.024-3.602-5.4-2.026-3.376 1.576-4.502 4.502-5.853 3.376s-4.501 1.575-5.627.226c-1.126-1.349-5.628-1.351-6.527 0s-3.602 1.125-7.428 2.926c-3.826 1.801-2.702.224-7.428 4.051s-7.429 6.977-9.003 4.501c-1.576-2.475-10.13-6.752-6.753-7.428 3.377-.676 4.952-2.025 6.753-.45 1.801 1.575 4.728 1.126 5.176 0 .448-1.126 2.477-2.251-.225-3.601s-2.926-.451-7.202-2.026c-4.277-1.576 0-1.125-5.853-2.026-5.853-.901-8.329-1.35-9.904-1.8-1.575-.45-3.826 0-6.076-.225-2.25-.225-3.826-.675-5.853-.45-2.025.225-3.15-.225-5.852 1.801-2.702 2.026-4.728 2.926-6.528 4.501-1.8 1.575-6.526 4.727-7.877 5.853-1.351 1.126-6.078 4.726-6.528 6.077-.45 1.351.45 2.476-1.351 3.376-1.801.9-3.601.9-4.952 1.125-1.351.225 0-2.026-1.351.225s-.9 10.354.225 9.228c1.125-1.126.45-4.726 5.402-1.349s8.104 2.925 7.878 6.076c-.226 3.151 3.376 2.926 3.826 3.602.45.674 2.701-.901 2.701-.901s4.952-3.151 4.952-4.726c0-1.575 3.151-5.177 3.151-5.177s-2.252-1.125-2.252-3.376.677-2.927 1.126-5.178c.449-2.251-2.476.001 4.277-4.277 6.753-4.278 7.202-1.349 7.202-1.349s.899.9-.226 2.25-3.151 4.953-3.601 5.402c-.45.449 2.026 4.052 3.15 4.052 1.126 0 3.377-.901 4.728-.676 1.351.226 3.601-.674 4.276-.224.676.45 2.251 1.8 1.125 2.926-1.126 1.126-3.602 2.475-5.401 2.026-1.799-.449-4.503-3.602-2.927.9s-.225 5.627-1.576 5.402c-1.349-.225-4.276-2.475-3.826.901.45 3.376-2.925 5.626-3.601 5.626-.676 0-2.025-.225-2.025-.225s-2.027-.226-3.151-.226c-1.126 0-3.377 1.125-4.052 2.026-.676.9-1.576.226-2.701.226s0-1.351-2.251-1.801c-2.251-.45-3.601-.9-4.951 0-1.35.9-3.376 1.35-4.277.675-.901-.675.451-2.252-1.351-1.35-1.802.902-3.151 3.376-3.826 3.602-.675.224 2.026 0-.675.224-2.701.226-3.826.902-5.177 1.351-1.351.449.45 3.151-2.026 4.051-2.476.9-.674-1.125-3.151.9-2.476 2.027-2.927 3.827-3.826 4.052-.901.226-.675.675-2.701.9-2.026.225-1.8.45-2.927.675-1.127.225.226.676-2.25.225-2.476-.451-4.277.451-3.827 1.351.45.9 8.778 3.376 2.476 3.151-6.302-.225-4.276.9-2.926 1.8 1.35.9 2.025 1.8 2.701 2.026.676.226 1.8 2.927 1.8 2.927s1.801-.226.676 1.35.45 2.026-.676 4.052c-1.126 2.026-1.125.675-2.025 1.125-.9.45-2.251 2.026-4.728.675-2.477-1.351-4.275-2.026-7.202-2.25-2.926-.226-.901-.675-2.926.899-2.026 1.577-2.476 3.377-2.25 5.402.225 2.025.45 4.727-.226 6.078s-.675 2.701-.226 4.727c.451 2.025 1.802 2.927 1.802 2.927s3.151.449 3.826.675c.675.226 2.026-.45 3.826.674 1.801 1.126 3.602 1.577 4.727.226 1.125-1.351 5.627-2.926 6.979-4.276 1.352-1.35 2.25-1.8 1.575-3.151-.675-1.351 1.351-4.727 2.476-5.402 1.125-.675 3.601-1.351 3.601-1.351l2.701-4.051s2.251-2.477 3.376-2.251c1.125.226 7.427 2.477 6.978-.449-.449-2.926.45-3.827 1.125-2.702s2.476.675 2.476.675.9-.449 1.575.226c.675.674 1.575 3.602 2.926 4.276 1.351.676 2.476 1.351 3.377 1.8.901.449 1.801 0 3.602 1.576s3.601 2.477 3.825 3.151c.227.675 1.802 2.251 1.802 2.251s1.575.45 1.125 1.351c-.45.901-2.7 3.602-3.826 4.051-1.126.449-4.051-.451-2.926.45 1.124.9 2.701 2.026 3.376 1.35.676-.675 4.951-5.177 4.951-5.177s-.225.225 0-1.126 0-2.925 1.126-2.25c1.125.676 1.801 1.576 2.251.676.45-.9.9-.45-.226-1.125-1.126-.675-3.826-4.502-5.177-4.727-1.351-.225-4.728-2.477-4.728-2.477s-.674-.675-2.25-2.475-2.025-1.351-2.477-2.927c-.452-1.576-1.801-3.601.676-3.151 2.477.45 4.051 2.025 6.302 3.376 2.251 1.351 1.802 1.8 3.827 3.151 2.025 1.351 2.252 2.702 3.826 2.477 1.575-.225 3.377.9 3.377 2.926 0 2.026.449 4.276.899 4.727.45.451 1.8 1.351 2.251 2.251.451.9 1.351 3.151 2.025 4.051.676.9 1.351 1.576 2.026 2.702.675 1.125.9-.226 1.575.225.676.45 1.576.224 1.576-.676s.224-2.476.224-2.476 3.153-.9 2.253-1.351c-.9-.451-3.603-3.151-3.377-4.051.226-.9 0-2.7 1.124-2.475 1.126.224 2.252 2.25 4.728.449s5.402-2.701 4.501 0c-.901 2.701.227 3.15 0 6.077-.224 2.927.902 2.026 2.478 3.602s2.7 1.802 3.825 2.251c1.125.449 2.926.226 4.728.451 1.802.225 2.926-.676 4.502-.225 1.574.45 5.176-.226 5.852.225.676.451 3.377-.9 3.601.675.225 1.576 1.126-.225.451 3.376-.675 3.601-1.576 6.077-1.576 6.077-2.476 4.727-3.376 5.853-4.502 6.078-1.124.225-1.8.9-3.825.675-2.026-.226-4.502 0-7.428-.675s-8.329.675-10.579-.676-5.402-.225-6.754-1.8c-1.352-1.575-3.6-1.351-4.501-2.251-.901-.9-1.35-3.375-1.35.226s-2.026 3.826-2.476 5.627c-.45 1.801.674.9-1.802.675-2.476-.226-3.151 1.125-6.752-1.575s-5.402-2.701-7.202-3.827c-1.8-1.126-3.602 2.025-5.402-1.575-1.8-3.6-4.277-.676-4.502-3.602-.225-2.927 0-2.7.225-4.501.225-1.801 2.701-3.376 1.576-4.051-1.125-.675-.226-1.801-1.801-1.125-1.575.676-3.826.9-5.627 1.575-1.801.676 4.051 0-4.727.676s-11.255 1.575-11.255 1.575-.675-.45-1.801.45-2.701 2.251-4.276 1.576c-1.575-.676-2.476-.451-3.826-.225s-2.25-1.125-3.826 0c-1.576 1.124-3.376 1.575-4.052 1.124-.677-.456-1.803-2.256-1.803-2.256z" id="Shape" class="tMvhJwtL_0"/>
      </g>
    </g>
  </g>
  <style>
    .tMvhJwtL_0{stroke-dasharray:2751 2753;stroke-dashoffset:2752;animation:tMvhJwtL_draw 5000ms linear 0ms forwards;}@keyframes tMvhJwtL_draw{100%{stroke-dashoffset:0;}}@keyframes tMvhJwtL_fade{0%{stroke-opacity:1;}95.65217391304348%{stroke-opacity:1;}100%{stroke-opacity:0;}}
  </style>
</svg>
