<?xml version="1.0" encoding="UTF-8"?>
<svg width="100%" height="100%" viewBox="0 0 215 183" version="1.1" xmlns="http://www.w3.org/2000/svg" xmlns:xlink="http://www.w3.org/1999/xlink">
    <!-- Generator: Sketch 42 (36781) - http://www.bohemiancoding.com/sketch -->
    <title>imac</title>
    <desc>Created with Sketch.</desc>
    <defs></defs>
    <g id="Page-1" stroke="none" stroke-width="1" fill="none" fill-rule="evenodd">
        <g id="Group" transform="translate(-360.347000, 0.262000)">
            <g id="imac" transform="translate(360.000000, 0.000000)">
                <polygon id="Shape" fill="#F2F2F2" fill-rule="nonzero" points="84.35 144.47 131.723 145.5411 135.6179 182.6141 80.2599 182.6141"></polygon>
                <polygon id="Shape" fill="#CCCCCC" fill-rule="nonzero" points="84.35 144.47 83.1124 156.013 132.8234 156.013 131.7232 145.542 84.3502 144.4706"></polygon>
                <rect id="Rectangle-path" fill="#FFFFFF" transform="translate(107.940000, 83.005000) scale(-1, 1) rotate(-180.000000) translate(-107.940000, -83.005000) " x="0.8" y="12.66" width="214.28" height="140.69"></rect>
                <path d="M0.77,9.686 L0.77,133.736 L215.11,133.736 L215.11,9.686 L0.77,9.686 Z M5.8224,16.0965 L209.1324,16.0965 L181.8664,118.2665 L29.5164,108.0765 L5.8224,16.0965 Z" id="Shape" fill="#333333"></path>
                <rect id="Rectangle-path" fill="#333333" fill-rule="nonzero" x="0.78" y="0.603" width="214.33" height="59.064"></rect>
                <rect id="Rectangle-path" fill="#666666" x="9.44" y="10.027" width="197" height="113.51"></rect>
                <rect id="Rectangle-path" fill="#FFFFFF" fill-rule="nonzero" x="64.29" y="176.99" width="87.305" height="5.6164"></rect>
                <circle id="Oval" fill="#333333" fill-rule="nonzero" cx="107.94" cy="143.79" r="5.5082"></circle>
            </g>
        </g>
    </g>
</svg>
