<?xml version="1.0" encoding="UTF-8"?>
<svg width="100%" height="100%" viewBox="0 0 189 264" version="1.1" xmlns="http://www.w3.org/2000/svg" xmlns:xlink="http://www.w3.org/1999/xlink">
    <!-- Generator: Sketch 42 (36781) - http://www.bohemiancoding.com/sketch -->
    <title>ipad</title>
    <desc>Created with Sketch.</desc>
    <defs>
        <linearGradient x1="-9.39945883%" y1="92.0616886%" x2="109.399458%" y2="7.94216664%" id="linearGradient-1">
            <stop stop-color="#EDEDED" offset="0%"></stop>
            <stop stop-color="#FFFFFF" offset="100%"></stop>
        </linearGradient>
        <linearGradient x1="-8.63412307%" y1="91.9015152%" x2="108.634123%" y2="8.09848485%" id="linearGradient-2">
            <stop stop-color="#BDBCBC" offset="0%"></stop>
            <stop stop-color="#DADADA" offset="100%"></stop>
        </linearGradient>
        <linearGradient x1="-5434.62705%" y1="13223%" x2="4245.88467%" y2="-8478%" id="linearGradient-3">
            <stop stop-color="#EDEDED" offset="0%"></stop>
            <stop stop-color="#FFFFFF" offset="100%"></stop>
        </linearGradient>
        <linearGradient x1="-5529.19727%" y1="13435%" x2="4340.4549%" y2="-8690%" id="linearGradient-4">
            <stop stop-color="#BDBCBC" offset="0%"></stop>
            <stop stop-color="#DADADA" offset="100%"></stop>
        </linearGradient>
        <linearGradient x1="-4337.39288%" y1="13282%" x2="3443.81118%" y2="-8420%" id="linearGradient-5">
            <stop stop-color="#EDEDED" offset="0%"></stop>
            <stop stop-color="#FFFFFF" offset="100%"></stop>
        </linearGradient>
        <linearGradient x1="-4413.40851%" y1="13493%" x2="3519.82681%" y2="-8631%" id="linearGradient-6">
            <stop stop-color="#BDBCBC" offset="0%"></stop>
            <stop stop-color="#DADADA" offset="100%"></stop>
        </linearGradient>
        <linearGradient x1="466%" y1="25934%" x2="15169%" y2="11231%" id="linearGradient-7">
            <stop stop-color="#EDEDED" offset="0%"></stop>
            <stop stop-color="#FFFFFF" offset="100%"></stop>
        </linearGradient>
        <linearGradient x1="254%" y1="26146%" x2="14958%" y2="11442%" id="linearGradient-8">
            <stop stop-color="#BDBCBC" offset="0%"></stop>
            <stop stop-color="#DADADA" offset="100%"></stop>
        </linearGradient>
        <linearGradient x1="-12259%" y1="13209%" x2="9443%" y2="-8492%" id="linearGradient-9">
            <stop stop-color="#EDEDED" offset="0%"></stop>
            <stop stop-color="#FFFFFF" offset="100%"></stop>
        </linearGradient>
        <linearGradient x1="-12471%" y1="13421%" x2="9654%" y2="-8704%" id="linearGradient-10">
            <stop stop-color="#BDBCBC" offset="0%"></stop>
            <stop stop-color="#DADADA" offset="100%"></stop>
        </linearGradient>
        <linearGradient x1="283.425365%" y1="26169%" x2="8064.62942%" y2="4468%" id="linearGradient-11">
            <stop stop-color="#EDEDED" offset="0%"></stop>
            <stop stop-color="#FFFFFF" offset="100%"></stop>
        </linearGradient>
        <linearGradient x1="207.409731%" y1="26381%" x2="8140.64506%" y2="4256%" id="linearGradient-12">
            <stop stop-color="#BDBCBC" offset="0%"></stop>
            <stop stop-color="#DADADA" offset="100%"></stop>
        </linearGradient>
        <linearGradient x1="580%" y1="26048%" x2="22281%" y2="4346%" id="linearGradient-13">
            <stop stop-color="#EDEDED" offset="0%"></stop>
            <stop stop-color="#FFFFFF" offset="100%"></stop>
        </linearGradient>
        <linearGradient x1="368%" y1="26260%" x2="22493%" y2="4135%" id="linearGradient-14">
            <stop stop-color="#BDBCBC" offset="0%"></stop>
            <stop stop-color="#DADADA" offset="100%"></stop>
        </linearGradient>
        <linearGradient x1="-12227%" y1="5685.01217%" x2="9475%" y2="-3585.35392%" id="linearGradient-15">
            <stop stop-color="#EDEDED" offset="0%"></stop>
            <stop stop-color="#FFFFFF" offset="100%"></stop>
        </linearGradient>
        <linearGradient x1="-12438%" y1="5775.57563%" x2="9686%" y2="-3675.91738%" id="linearGradient-16">
            <stop stop-color="#BDBCBC" offset="0%"></stop>
            <stop stop-color="#DADADA" offset="100%"></stop>
        </linearGradient>
        <linearGradient x1="4499%" y1="29967%" x2="26201%" y2="8266%" id="linearGradient-17">
            <stop stop-color="#EDEDED" offset="0%"></stop>
            <stop stop-color="#FFFFFF" offset="100%"></stop>
        </linearGradient>
        <radialGradient cx="50%" cy="50%" fx="50%" fy="50%" r="198.843931%" id="radialGradient-18">
            <stop stop-color="#FFFFFF" offset="0%"></stop>
            <stop stop-color="#FCFCFC" offset="39%"></stop>
            <stop stop-color="#F3F3F3" offset="67%"></stop>
            <stop stop-color="#E3E3E3" offset="92%"></stop>
            <stop stop-color="#DCDCDC" offset="100%"></stop>
        </radialGradient>
        <radialGradient cx="9433%" cy="25033%" fx="9433%" fy="25033%" r="688%" id="radialGradient-19">
            <stop stop-color="#FFFFFF" offset="0%"></stop>
            <stop stop-color="#FCFCFC" offset="39%"></stop>
            <stop stop-color="#F3F3F3" offset="67%"></stop>
            <stop stop-color="#E3E3E3" offset="92%"></stop>
            <stop stop-color="#DCDCDC" offset="100%"></stop>
        </radialGradient>
        <linearGradient x1="4499%" y1="29341.6273%" x2="26201%" y2="8094.2561%" id="linearGradient-20">
            <stop stop-color="#EDEDED" offset="0%"></stop>
            <stop stop-color="#FFFFFF" offset="100%"></stop>
        </linearGradient>
        <linearGradient x1="-0.631940829%" y1="49.5749228%" x2="101.074074%" y2="49.5749228%" id="linearGradient-21">
            <stop stop-color="#9D9D9C" offset="0%"></stop>
            <stop stop-color="#C6C6C6" offset="100%"></stop>
        </linearGradient>
        <linearGradient x1="-21103%" y1="31%" x2="17675%" y2="31%" id="linearGradient-22">
            <stop stop-color="#FFFFFF" stop-opacity="0.05" offset="0%"></stop>
            <stop stop-color="#FFFFFF" stop-opacity="0" offset="100%"></stop>
        </linearGradient>
        <linearGradient x1="-2622%" y1="12074%" x2="36156%" y2="12074%" id="linearGradient-23">
            <stop stop-color="#FFFFFF" stop-opacity="0.05" offset="0%"></stop>
            <stop stop-color="#FFFFFF" stop-opacity="0" offset="100%"></stop>
        </linearGradient>
        <linearGradient x1="-1580%" y1="11836.8161%" x2="20121%" y2="1106.15568%" id="linearGradient-24">
            <stop stop-color="#EDEDED" offset="0%"></stop>
            <stop stop-color="#FFFFFF" offset="100%"></stop>
        </linearGradient>
        <linearGradient x1="-2622%" y1="11891%" x2="36156%" y2="11891%" id="linearGradient-25">
            <stop stop-color="#FFFFFF" stop-opacity="0.05" offset="0%"></stop>
            <stop stop-color="#FFFFFF" stop-opacity="0" offset="100%"></stop>
        </linearGradient>
        <linearGradient x1="-1738%" y1="11970.3872%" x2="20387%" y2="1028.2403%" id="linearGradient-26">
            <stop stop-color="#BDBCBC" offset="0%"></stop>
            <stop stop-color="#DADADA" offset="100%"></stop>
        </linearGradient>
        <linearGradient x1="-2622%" y1="11954%" x2="36156%" y2="11954%" id="linearGradient-27">
            <stop stop-color="#FFFFFF" stop-opacity="0.05" offset="0%"></stop>
            <stop stop-color="#FFFFFF" stop-opacity="0" offset="100%"></stop>
        </linearGradient>
        <linearGradient x1="-3149%" y1="22319%" x2="18552%" y2="617%" id="linearGradient-28">
            <stop stop-color="#EDEDED" offset="0%"></stop>
            <stop stop-color="#FFFFFF" offset="100%"></stop>
        </linearGradient>
        <linearGradient x1="-3361%" y1="22531%" x2="18764%" y2="406%" id="linearGradient-29">
            <stop stop-color="#BDBCBC" offset="0%"></stop>
            <stop stop-color="#DADADA" offset="100%"></stop>
        </linearGradient>
        <linearGradient x1="-2622%" y1="648%" x2="36156%" y2="648%" id="linearGradient-30">
            <stop stop-color="#FFFFFF" stop-opacity="0.05" offset="0%"></stop>
            <stop stop-color="#FFFFFF" stop-opacity="0" offset="100%"></stop>
        </linearGradient>
        <linearGradient x1="-3236%" y1="22232%" x2="18465%" y2="531%" id="linearGradient-31">
            <stop stop-color="#EDEDED" offset="0%"></stop>
            <stop stop-color="#FFFFFF" offset="100%"></stop>
        </linearGradient>
        <linearGradient x1="-3448%" y1="22444%" x2="18677%" y2="319%" id="linearGradient-32">
            <stop stop-color="#BDBCBC" offset="0%"></stop>
            <stop stop-color="#DADADA" offset="100%"></stop>
        </linearGradient>
        <linearGradient x1="-2622%" y1="537%" x2="36156%" y2="537%" id="linearGradient-33">
            <stop stop-color="#FFFFFF" stop-opacity="0.05" offset="0%"></stop>
            <stop stop-color="#FFFFFF" stop-opacity="0" offset="100%"></stop>
        </linearGradient>
        <linearGradient x1="-3451%" y1="22017%" x2="18250%" y2="316%" id="linearGradient-34">
            <stop stop-color="#EDEDED" offset="0%"></stop>
            <stop stop-color="#FFFFFF" offset="100%"></stop>
        </linearGradient>
        <linearGradient x1="-3663%" y1="22229%" x2="18462%" y2="104%" id="linearGradient-35">
            <stop stop-color="#BDBCBC" offset="0%"></stop>
            <stop stop-color="#DADADA" offset="100%"></stop>
        </linearGradient>
        <linearGradient x1="-2622%" y1="347%" x2="36156%" y2="347%" id="linearGradient-36">
            <stop stop-color="#FFFFFF" stop-opacity="0.05" offset="0%"></stop>
            <stop stop-color="#FFFFFF" stop-opacity="0" offset="100%"></stop>
        </linearGradient>
        <linearGradient x1="-2263.49536%" y1="22129%" x2="12555.0297%" y2="428%" id="linearGradient-37">
            <stop stop-color="#EDEDED" offset="0%"></stop>
            <stop stop-color="#FFFFFF" offset="100%"></stop>
        </linearGradient>
        <linearGradient x1="-2408.25953%" y1="22341%" x2="12699.7938%" y2="216%" id="linearGradient-38">
            <stop stop-color="#BDBCBC" offset="0%"></stop>
            <stop stop-color="#DADADA" offset="100%"></stop>
        </linearGradient>
        <linearGradient x1="-2622%" y1="437%" x2="36156%" y2="437%" id="linearGradient-39">
            <stop stop-color="#FFFFFF" stop-opacity="0.05" offset="0%"></stop>
            <stop stop-color="#FFFFFF" stop-opacity="0" offset="100%"></stop>
        </linearGradient>
        <linearGradient x1="-7321%" y1="18146%" x2="14380%" y2="-3555%" id="linearGradient-40">
            <stop stop-color="#EDEDED" offset="0%"></stop>
            <stop stop-color="#FFFFFF" offset="100%"></stop>
        </linearGradient>
        <radialGradient cx="50%" cy="50%" fx="50%" fy="50%" r="50%" id="radialGradient-41">
            <stop stop-color="#3C3C3B" offset="0%"></stop>
            <stop stop-color="#1D1D1B" offset="100%"></stop>
        </radialGradient>
        <linearGradient x1="-2622%" y1="1392%" x2="36156%" y2="1392%" id="linearGradient-42">
            <stop stop-color="#FFFFFF" stop-opacity="0.05" offset="0%"></stop>
            <stop stop-color="#FFFFFF" stop-opacity="0" offset="100%"></stop>
        </linearGradient>
        <radialGradient cx="50%" cy="50%" fx="50%" fy="50%" r="84.8765432%" id="radialGradient-43">
            <stop stop-color="#3C3C3B" offset="0%"></stop>
            <stop stop-color="#1D1D1B" offset="100%"></stop>
        </radialGradient>
        <radialGradient cx="50%" cy="50%" fx="50%" fy="50%" r="50%" id="radialGradient-44">
            <stop stop-color="#272726" offset="0%"></stop>
            <stop stop-color="#3C3C3B" offset="100%"></stop>
        </radialGradient>
    </defs>
    <g id="Page-1" stroke="none" stroke-width="1" fill="none" fill-rule="evenodd">
        <g id="Fichier-1">
            <g id="Calque_2">
                <g id="ipad">
                    <path d="M185.22,257.54 C185.080371,257.889805 184.906174,258.224799 184.7,258.54 C184.906174,258.224799 185.080371,257.889805 185.22,257.54 Z" id="Shape"></path>
                    <path d="M185.67,255.33 C185.670049,256.089423 185.517,256.841062 185.22,257.54 C185.517,256.841062 185.670049,256.089423 185.67,255.33 L185.67,234.82 L185.67,234.82 L185.67,255.33 Z" id="Shape"></path>
                    <path d="M184,259.34 C183.742662,259.596281 183.461379,259.827335 183.16,260.03 C183.461379,259.827335 183.742662,259.596281 184,259.34 Z" id="Shape"></path>
                    <path d="M7,3.25 C4.61968105,3.98022333 2.99608574,6.18019497 3,8.67 L3,255.33 C3.00067897,257.020968 3.75605298,258.623387 5.06,259.7 C5.2,259.813333 5.34666667,259.923333 5.5,260.03 C5.81516771,260.236232 6.15016753,260.410431 6.5,260.55 L7.02,260.74 C7.56747382,260.908209 8.13727344,260.992499 8.71,260.99 L180,260.99 C181.504592,260.992661 182.948325,260.396142 184.012233,259.332233 C185.076142,258.268325 185.672661,256.824592 185.67,255.32 L185.67,234.82 L178.34,224.39 L178.34,239.33 L10.34,239.33 L10.34,24.67 L37.89,24.67 L22.65,3 L8.65,3 C8.0906798,3.00149433 7.53465873,3.08573995 7,3.25 L7,3.25 Z M94.35,243.45 C98.1428936,243.450004 101.218154,246.523778 101.219992,250.316672 C101.22183,254.109565 98.1495488,257.186317 94.356657,257.189997 C90.5637651,257.193676 87.485521,254.12289 87.48,250.33 C87.4854642,246.545868 90.5459002,243.476497 94.33,243.46 L94.35,243.45 Z" id="Shape" fill="url(#linearGradient-1)" fill-rule="nonzero"></path>
                    <path d="M185.67,255.33 C185.67,258.461455 183.131455,261 180,261 L8.67,261 C8.10397532,261.00049 7.54106767,260.916223 7,260.75 L6.48,260.56 C6.13016753,260.420431 5.79516771,260.246232 5.48,260.04 C5.32666667,259.94 5.18,259.83 5.04,259.71 C3.74081877,258.627297 2.99276077,257.021173 3,255.33 L3,8.67 C3.00159136,8.2869331 3.0417946,7.90500227 3.12,7.53 C3.65741552,4.89235527 5.97816389,2.99812282 8.67,3 L22.67,3 L20.54,0 L8.67,0 C3.88397568,0.00551068403 0.00551068403,3.88397568 0,8.67 L0,255.33 C0.00551068403,260.116024 3.88397568,263.994489 8.67,264 L180,264 C184.786024,263.994489 188.664489,260.116024 188.67,255.33 L188.67,239.09 L185.67,234.82 L185.67,255.33 Z" id="Shape" fill="url(#linearGradient-2)" fill-rule="nonzero"></path>
                    <path d="M7,3.25 C5.9392634,3.57567794 4.99714697,4.20491437 4.29,5.06 C4.99714697,4.20491437 5.9392634,3.57567794 7,3.25 L7,3.25 Z" id="Shape" fill="url(#linearGradient-3)" fill-rule="nonzero"></path>
                    <path d="M7,3.25 C5.9392634,3.57567794 4.99714697,4.20491437 4.29,5.06 C4.99714697,4.20491437 5.9392634,3.57567794 7,3.25 L7,3.25 Z" id="Shape" fill="url(#linearGradient-4)" fill-rule="nonzero"></path>
                    <path d="M8.67,3 C8.10397532,2.99950979 7.54106767,3.08377741 7,3.25 C7.54106767,3.08377741 8.10397532,2.99950979 8.67,3 L8.67,3 Z" id="Shape" fill="url(#linearGradient-5)" fill-rule="nonzero"></path>
                    <path d="M8.67,3 C8.10397532,2.99950979 7.54106767,3.08377741 7,3.25 C7.54106767,3.08377741 8.10397532,2.99950979 8.67,3 L8.67,3 Z" id="Shape" fill="url(#linearGradient-6)" fill-rule="nonzero"></path>
                    <path d="M4.29,258.94 C4.52145968,259.220693 4.77930684,259.47854 5.06,259.71 C4.77930684,259.47854 4.52145968,259.220693 4.29,258.94 L4.29,258.94 Z" id="Shape" fill="url(#linearGradient-7)" fill-rule="nonzero"></path>
                    <path d="M4.29,258.94 C4.52145968,259.220693 4.77930684,259.47854 5.06,259.71 C4.77930684,259.47854 4.52145968,259.220693 4.29,258.94 L4.29,258.94 Z" id="Shape" fill="url(#linearGradient-8)" fill-rule="nonzero"></path>
                    <path d="M3.68,6 C3.85408706,5.68118475 4.05835596,5.37980441 4.29,5.1 C4.05835596,5.37980441 3.85408706,5.68118475 3.68,6 L3.68,6 Z" id="Shape" fill="url(#linearGradient-9)" fill-rule="nonzero"></path>
                    <path d="M3.68,6 C3.85408706,5.68118475 4.05835596,5.37980441 4.29,5.1 C4.05835596,5.37980441 3.85408706,5.68118475 3.68,6 L3.68,6 Z" id="Shape" fill="url(#linearGradient-10)" fill-rule="nonzero"></path>
                    <path d="M8.67,261 L8.67,261 C8.10397532,261.00049 7.54106767,260.916223 7,260.75 C7.54106767,260.916223 8.10397532,261.00049 8.67,261 Z" id="Shape" fill="url(#linearGradient-11)" fill-rule="nonzero"></path>
                    <path d="M8.67,261 L8.67,261 C8.10397532,261.00049 7.54106767,260.916223 7,260.75 C7.54106767,260.916223 8.10397532,261.00049 8.67,261 Z" id="Shape" fill="url(#linearGradient-12)" fill-rule="nonzero"></path>
                    <path d="M6.46,260.55 C6.11016753,260.410431 5.77516771,260.236232 5.46,260.03 C5.77516771,260.236232 6.11016753,260.410431 6.46,260.55 L6.46,260.55 Z" id="Shape" fill="url(#linearGradient-13)" fill-rule="nonzero"></path>
                    <path d="M6.46,260.55 C6.11016753,260.410431 5.77516771,260.236232 5.46,260.03 C5.77516771,260.236232 6.11016753,260.410431 6.46,260.55 L6.46,260.55 Z" id="Shape" fill="url(#linearGradient-14)" fill-rule="nonzero"></path>
                    <path d="M3.12,7.53 C3.23149456,6.99554516 3.42013603,6.4801497 3.68,6 C3.42013603,6.4801497 3.23149456,6.99554516 3.12,7.53 L3.12,7.53 Z" id="Shape" fill="url(#linearGradient-15)" fill-rule="nonzero"></path>
                    <path d="M3.12,7.53 C3.23149456,6.99554516 3.42013603,6.4801497 3.68,6 C3.42013603,6.4801497 3.23149456,6.99554516 3.12,7.53 L3.12,7.53 Z" id="Shape" fill="url(#linearGradient-16)" fill-rule="nonzero"></path>
                    <rect id="Rectangle-path" fill="url(#linearGradient-17)" fill-rule="nonzero" x="92.6" y="248.6" width="3.46" height="3.46" rx="0.71"></rect>
                    <rect id="Rectangle" fill="#666666" x="11" y="25" width="167" height="214.09"></rect>
                    <rect id="Rectangle-path" fill="url(#radialGradient-18)" fill-rule="nonzero" x="92.6" y="248.6" width="3.46" height="3.46" rx="0.71"></rect>
                    <path d="M94.33,257.21 C97.1145161,257.214044 99.626913,255.53927 100.69437,252.967485 C101.761827,250.395699 101.17384,247.434065 99.2048874,245.465113 C97.2359351,243.49616 94.274301,242.908173 91.7025154,243.97563 C89.1307297,245.043087 87.4559557,247.555484 87.46,250.34 C87.46,254.134196 90.5358038,257.21 94.33,257.21 Z M92,249.31 C92.0208794,248.595334 92.5953341,248.020879 93.31,248 L95.31,248 C96.0477943,248.005445 96.6445548,248.602206 96.65,249.34 L96.65,251.34 C96.6445548,252.077794 96.0477943,252.674555 95.31,252.68 L93.31,252.68 C92.5915722,252.658875 92.0156614,252.078568 92,251.36 L92,249.31 Z" id="Shape" fill="url(#linearGradient-17)" fill-rule="nonzero"></path>
                    <path d="M94.33,257.21 C97.1145161,257.214044 99.626913,255.53927 100.69437,252.967485 C101.761827,250.395699 101.17384,247.434065 99.2048874,245.465113 C97.2359351,243.49616 94.274301,242.908173 91.7025154,243.97563 C89.1307297,245.043087 87.4559557,247.555484 87.46,250.34 C87.46,254.134196 90.5358038,257.21 94.33,257.21 Z M92,249.31 C92.0208794,248.595334 92.5953341,248.020879 93.31,248 L95.31,248 C96.0477943,248.005445 96.6445548,248.602206 96.65,249.34 L96.65,251.34 C96.6445548,252.077794 96.0477943,252.674555 95.31,252.68 L93.31,252.68 C92.5915722,252.658875 92.0156614,252.078568 92,251.36 L92,249.31 Z" id="Shape" fill="url(#radialGradient-19)" fill-rule="nonzero"></path>
                    <path d="M93.31,252.7 L95.31,252.7 C96.0477943,252.694555 96.6445548,252.097794 96.65,251.36 L96.65,249.36 C96.6560996,248.633366 96.0859424,248.03227 95.36,248 L93.36,248 C92.6258833,247.99424 92.0217297,248.576182 92,249.31 L92,251.31 C91.9892327,251.668086 92.1212371,252.015768 92.3669428,252.276478 C92.6126486,252.537189 92.9519049,252.689547 93.31,252.7 Z M92.6,249.31 C92.6,248.917878 92.9178778,248.6 93.31,248.6 L95.31,248.6 C95.7021222,248.6 96.02,248.917878 96.02,249.31 L96.02,251.31 C96.02,251.702122 95.7021222,252.02 95.31,252.02 L93.31,252.02 C92.9178778,252.02 92.6,251.702122 92.6,251.31 L92.6,249.31 Z" id="Shape" fill="url(#linearGradient-20)" fill-rule="nonzero"></path>
                    <path d="M93.31,252.7 L95.31,252.7 C96.0477943,252.694555 96.6445548,252.097794 96.65,251.36 L96.65,249.36 C96.6560996,248.633366 96.0859424,248.03227 95.36,248 L93.36,248 C92.6258833,247.99424 92.0217297,248.576182 92,249.31 L92,251.31 C91.9892327,251.668086 92.1212371,252.015768 92.3669428,252.276478 C92.6126486,252.537189 92.9519049,252.689547 93.31,252.7 Z M92.6,249.31 C92.6,248.917878 92.9178778,248.6 93.31,248.6 L95.31,248.6 C95.7021222,248.6 96.02,248.917878 96.02,249.31 L96.02,251.31 C96.02,251.702122 95.7021222,252.02 95.31,252.02 L93.31,252.02 C92.9178778,252.02 92.6,251.702122 92.6,251.31 L92.6,249.31 Z" id="Shape" fill="url(#radialGradient-19)" fill-rule="nonzero"></path>
                    <path d="M93.31,252.7 L95.31,252.7 C96.0477943,252.694555 96.6445548,252.097794 96.65,251.36 L96.65,249.36 C96.6560996,248.633366 96.0859424,248.03227 95.36,248 L93.36,248 C92.6258833,247.99424 92.0217297,248.576182 92,249.31 L92,251.31 C91.9892327,251.668086 92.1212371,252.015768 92.3669428,252.276478 C92.6126486,252.537189 92.9519049,252.689547 93.31,252.7 Z M92.6,249.31 C92.6,248.917878 92.9178778,248.6 93.31,248.6 L95.31,248.6 C95.7021222,248.6 96.02,248.917878 96.02,249.31 L96.02,251.31 C96.02,251.702122 95.7021222,252.02 95.31,252.02 L93.31,252.02 C92.9178778,252.02 92.6,251.702122 92.6,251.31 L92.6,249.31 Z" id="Shape" fill="url(#linearGradient-21)" fill-rule="nonzero"></path>
                    <path d="M184.81,5.68 C184.93656,5.88258809 185.050122,6.09301187 185.15,6.31 C185.050098,6.09302389 184.936537,5.88260161 184.81,5.68 Z" id="Shape" fill="url(#linearGradient-22)" fill-rule="nonzero"></path>
                    <path d="M185.67,234.82 L185.67,234.82 L185.67,8.67 C185.665696,7.98580258 185.536932,7.3080981 185.29,6.67 C185.536932,7.3080981 185.665696,7.98580258 185.67,8.67 L185.67,234.82 Z" id="Shape" fill="url(#linearGradient-23)" fill-rule="nonzero"></path>
                    <path d="M178.33,24.67 L178.33,224.39 L185.66,234.82 L185.66,8.67 C185.655696,7.98580258 185.526932,7.3080981 185.28,6.67 C185.28,6.55 185.19,6.43 185.13,6.32 C184.217571,4.30433034 182.212556,3.00673766 180,3 L22.65,3 L37.89,24.67 L178.33,24.67 Z M94.33,11.17 C95.8487831,11.17 97.08,12.4012169 97.08,13.92 C97.08,15.4387831 95.8487831,16.67 94.33,16.67 C92.8112169,16.67 91.58,15.4387831 91.58,13.92 C91.58,12.4012169 92.8112169,11.17 94.33,11.17 Z" id="Shape" fill="url(#linearGradient-24)" fill-rule="nonzero"></path>
                    <path d="M178.33,24.67 L178.33,224.39 L185.66,234.82 L185.66,8.67 C185.655696,7.98580258 185.526932,7.3080981 185.28,6.67 C184.217571,4.30433034 182.212556,3.00673766 180,3 L22.65,3 L37.89,24.67 L178.33,24.67 Z M94.33,11.17 C95.8487831,11.17 97.08,12.4012169 97.08,13.92 C97.08,15.4387831 95.8487831,16.67 94.33,16.67 C92.8112169,16.67 91.58,15.4387831 91.58,13.92 C91.58,12.4012169 92.8112169,11.17 94.33,11.17 Z" id="Shape" fill="url(#linearGradient-25)" fill-rule="nonzero"></path>
                    <path d="M180,0 L20.54,0 L22.65,3 L180,3 C182.212209,3.00533702 184.220798,4.2923946 185.15,6.3 C185.2,6.42 185.25,6.53 185.3,6.65 C185.546932,7.2880981 185.675696,7.96580258 185.68,8.65 L185.68,234.82 L188.68,239.09 L188.68,8.67 C188.674482,3.88007408 184.789929,-3.17877496e-06 180,0 Z" id="Shape" fill="url(#linearGradient-26)" fill-rule="nonzero"></path>
                    <path d="M180,0 L20.54,0 L22.65,3 L180,3 C182.212209,3.00533702 184.220798,4.2923946 185.15,6.3 C185.2,6.42 185.25,6.53 185.3,6.65 C185.546932,7.2880981 185.675696,7.96580258 185.68,8.65 L185.68,234.82 L188.68,239.09 L188.68,8.67 C188.674482,3.88007408 184.789929,-3.17877496e-06 180,0 Z" id="Shape" fill="url(#linearGradient-27)" fill-rule="nonzero"></path>
                    <path d="M185.14,6.3 C185.19,6.42 185.24,6.53 185.29,6.65 C185.25,6.53 185.2,6.42 185.14,6.3 Z" id="Shape" fill="url(#linearGradient-28)" fill-rule="nonzero"></path>
                    <path d="M185.14,6.3 C185.19,6.42 185.24,6.53 185.29,6.65 C185.25,6.53 185.2,6.42 185.14,6.3 Z" id="Shape" fill="url(#linearGradient-29)" fill-rule="nonzero"></path>
                    <path d="M185.14,6.3 C185.19,6.42 185.24,6.53 185.29,6.65 C185.25,6.53 185.2,6.42 185.14,6.3 Z" id="Shape" fill="url(#linearGradient-30)" fill-rule="nonzero"></path>
                    <path d="M184.37,5.06 C184.526551,5.25368662 184.670195,5.45745971 184.8,5.67 C184.670195,5.45745971 184.526551,5.25368662 184.37,5.06 L184.37,5.06 Z" id="Shape" fill="url(#linearGradient-31)" fill-rule="nonzero"></path>
                    <path d="M184.37,5.06 C184.526551,5.25368662 184.670195,5.45745971 184.8,5.67 C184.670195,5.45745971 184.526551,5.25368662 184.37,5.06 L184.37,5.06 Z" id="Shape" fill="url(#linearGradient-32)" fill-rule="nonzero"></path>
                    <path d="M184.37,5.06 C184.526551,5.25368662 184.670195,5.45745971 184.8,5.67 C184.670195,5.45745971 184.526551,5.25368662 184.37,5.06 L184.37,5.06 Z" id="Shape" fill="url(#linearGradient-33)" fill-rule="nonzero"></path>
                    <path d="M181.68,3.25 C182.02644,3.3606971 182.361338,3.50470335 182.68,3.68 C182.361338,3.50470335 182.02644,3.3606971 181.68,3.25 L181.68,3.25 Z" id="Shape" fill="url(#linearGradient-34)" fill-rule="nonzero"></path>
                    <path d="M181.68,3.25 C182.02644,3.3606971 182.361338,3.50470335 182.68,3.68 C182.361338,3.50470335 182.02644,3.3606971 181.68,3.25 L181.68,3.25 Z" id="Shape" fill="url(#linearGradient-35)" fill-rule="nonzero"></path>
                    <path d="M181.68,3.25 C182.02644,3.3606971 182.361338,3.50470335 182.68,3.68 C182.361338,3.50470335 182.02644,3.3606971 181.68,3.25 L181.68,3.25 Z" id="Shape" fill="url(#linearGradient-36)" fill-rule="nonzero"></path>
                    <path d="M184.37,5.06 C183.906848,4.49729477 183.339908,4.02880491 182.7,3.68 C183.339908,4.02880491 183.906848,4.49729477 184.37,5.06 L184.37,5.06 Z" id="Shape" fill="url(#linearGradient-37)" fill-rule="nonzero"></path>
                    <path d="M184.37,5.06 C183.906848,4.49729477 183.339908,4.02880491 182.7,3.68 C183.339908,4.02880491 183.906848,4.49729477 184.37,5.06 L184.37,5.06 Z" id="Shape" fill="url(#linearGradient-38)" fill-rule="nonzero"></path>
                    <path d="M184.37,5.06 C183.906848,4.49729477 183.339908,4.02880491 182.7,3.68 C183.339908,4.02880491 183.906848,4.49729477 184.37,5.06 L184.37,5.06 Z" id="Shape" fill="url(#linearGradient-39)" fill-rule="nonzero"></path>
                    <path d="M94.33,16.67 C95.8487831,16.67 97.08,15.4387831 97.08,13.92 C97.08,12.4012169 95.8487831,11.17 94.33,11.17 C92.8112169,11.17 91.58,12.4012169 91.58,13.92 C91.58,15.4387831 92.8112169,16.67 94.33,16.67 L94.33,16.67 Z M94.33,12.3 C95.2247013,12.3 95.95,13.0252987 95.95,13.92 C95.95,14.8147013 95.2247013,15.54 94.33,15.54 C93.4352987,15.54 92.71,14.8147013 92.71,13.92 C92.7073371,13.4886193 92.8768389,13.0739923 93.1809369,12.7680171 C93.485035,12.4620419 93.898611,12.2899918 94.33,12.29 L94.33,12.3 Z" id="Shape" fill="url(#linearGradient-40)" fill-rule="nonzero"></path>
                    <path d="M94.33,16.67 C95.8487831,16.67 97.08,15.4387831 97.08,13.92 C97.08,12.4012169 95.8487831,11.17 94.33,11.17 C92.8112169,11.17 91.58,12.4012169 91.58,13.92 C91.58,15.4387831 92.8112169,16.67 94.33,16.67 L94.33,16.67 Z M94.33,12.3 C95.2247013,12.3 95.95,13.0252987 95.95,13.92 C95.95,14.8147013 95.2247013,15.54 94.33,15.54 C93.4352987,15.54 92.71,14.8147013 92.71,13.92 C92.7073371,13.4886193 92.8768389,13.0739923 93.1809369,12.7680171 C93.485035,12.4620419 93.898611,12.2899918 94.33,12.29 L94.33,12.3 Z" id="Shape" fill="url(#radialGradient-41)" fill-rule="nonzero"></path>
                    <path d="M94.33,16.67 C95.8487831,16.67 97.08,15.4387831 97.08,13.92 C97.08,12.4012169 95.8487831,11.17 94.33,11.17 C92.8112169,11.17 91.58,12.4012169 91.58,13.92 C91.58,15.4387831 92.8112169,16.67 94.33,16.67 L94.33,16.67 Z M94.33,12.3 C95.2247013,12.3 95.95,13.0252987 95.95,13.92 C95.95,14.8147013 95.2247013,15.54 94.33,15.54 C93.4352987,15.54 92.71,14.8147013 92.71,13.92 C92.7073371,13.4886193 92.8768389,13.0739923 93.1809369,12.7680171 C93.485035,12.4620419 93.898611,12.2899918 94.33,12.29 L94.33,12.3 Z" id="Shape" fill="url(#linearGradient-42)" fill-rule="nonzero"></path>
                    <circle id="Oval" fill="url(#linearGradient-40)" fill-rule="nonzero" cx="94.33" cy="13.92" r="1.62"></circle>
                    <circle id="Oval" fill="url(#radialGradient-43)" fill-rule="nonzero" cx="94.33" cy="13.92" r="1.62"></circle>
                    <circle id="Oval" fill="url(#radialGradient-44)" fill-rule="nonzero" cx="94.33" cy="13.92" r="1.62"></circle>
                    <circle id="Oval" fill="url(#linearGradient-42)" fill-rule="nonzero" cx="94.33" cy="13.92" r="1.62"></circle>
                </g>
            </g>
        </g>
    </g>
</svg>
