<svg height="100%" width="100%" viewBox="0 0 785 403" xmlns="http://www.w3.org/2000/svg">
  <g id="Page-1" fill="none" fill-rule="evenodd">
    <g id="world-map-146505" fill-rule="nonzero" stroke="#000" fill="#FFF">
      <g id="Group">
        <path d="M346.165886 115.591423l-3.385757 4.501-2.255834 2.251-4.512671 2.475-.677753 2.026s-1.80567 1.801-1.579084 2.927c.226586 1.126.226586 3.151.226586 3.151s-3.159171 2.926-4.513674 3.826c-1.354503.9-3.160173 2.926-3.160173 2.926s-1.127917 1.351-1.804668 1.801c-.67675.45-1.804667 1.8-2.708003 3.151-.903337 1.351-1.80567 2.25-2.256837 2.925-.451167.675-1.80567 2.251-2.482421 4.727-.67675 2.476-2.48242 5.402-2.48242 5.402l-.452169 1.125c.226586 3.827.225583 4.502.677752 5.853.45217 1.351.903337.899.451167 3.826-.451167 2.925-.451167 4.051-.902333 5.402-.451167 1.351-1.80567 3.825-2.255835 4.952-.450164 1.127.902334 3.15.902334 3.15s.677753 2.927.225583 3.602c-.451166.676.225584 2.026.225584 2.026s2.708004 1.575 3.61134 2.476c.903336.901 2.48242 2.251 2.708004 2.926.225583.675 2.031253 3.827 2.256837 4.502.225583.675 2.031253 3.15 2.48242 3.826.451167.676 2.708004 3.152 2.708004 3.152s2.933587 2.249 3.61134 3.15c.677753.901 2.708004 1.35 3.383751 2.025.677753.675 2.256837.449 3.159171 1.126.902334.677 2.708004-.451 3.61134 0 .903336.451 3.385757-.45 4.062507-.9.67675-.45 2.255834-2.025 3.384754-1.351 1.12892.674 1.804667 0 2.708004.225.903336.225 2.255834-.899 3.158168-.899.902334 0 3.15917-.901 3.835921-.901.67675 0 2.93459-1.352 3.837926-1.352.903336 0 2.030251-.898 3.158168-.449s.67675-.899 2.708004-.225c2.031253.674 2.708003 0 3.384754.674.677753.676 1.581089.002 2.257839.902.676751.899 1.804668 1.574 2.030251 2.475.225584.901 1.579084 1.802 1.579084 1.802l1.354503.224s1.806673-1.35 2.256837-.449 2.482421.676 2.482421.676l2.03025 2.25.677753.9s1.354503 3.602 1.127917 4.952c-.226586 1.35-.225583 4.276-.902333 4.951-.676751.676-1.127917 3.602-1.127917 3.602s-.903337.9 1.127917 2.701c2.031253 1.801 3.385756 3.376 4.062507 4.275.677753.901 2.483423 3.378 2.707001 4.953.226586 1.575.677753 2.475 1.581089 4.501.903336 2.026 2.030251 2.251 2.255834 4.503.225584 2.252.676751 2.251.451167 3.825-.225583 1.576-.902333 1.801-.225583 2.926.67675 1.125 1.578081 3.152 1.354503 3.827-.225583.675-.677753 3.601-.677753 3.601l-.451167 1.351-2.030251 3.828-1.354503 2.024c-.451167 1.575-1.3535 3.151-1.127917 5.402.224581 2.251-1.127917 2.25.67675 4.5 1.804668 2.25 2.707001 4.728 3.835921 6.754 1.12892 2.025 1.80567 4.051 2.030251 5.401.226586 1.351 1.12892 1.802 1.580087 3.602.451167 1.8.67675 2.7.67675 3.826s-.226586 4.052.226586 4.727c.453172.675.67675 2.702.902334 3.602.225583.901-.677753 1.126.67675 2.702s2.256837 2.475 3.159171 3.601c.902333 1.126.67675.675 1.354503 2.251.677753 1.576 1.579084 2.477 1.80567 3.826.226586 1.349.450164 4.726 1.127917 6.302.677753 1.576 1.579084 3.152 1.579084 3.152s2.483423 1.575 3.385757 1.35c.901331-.225 2.708003-2.249 4.062507-1.575 1.354503.675 2.48242 0 3.610337 0s2.256837-1.351 3.385757-1.351 2.707001-1.801 3.61134-1.35c.904339.451 2.029248-.452 3.158168-1.577 1.12892-1.124 1.80567-2.024 3.835921-3.825 2.030251-1.801 1.80567-1.802 3.15917-2.927 1.353501-1.125 2.709007-3.602 4.288091-4.052 1.579084-.45 2.030251-2.024 2.481418-3.15.451166-1.126.67675-1.801 1.354503-2.702s.225583.228 1.354503-2.7c1.12892-2.928 2.484425-4.051 3.612343-4.727 1.127917-.676 1.804667-2.025 2.481417-2.251.676751-.226 1.80567.675 1.354504-1.351-.450165-2.025 0-4.951-.450165-5.626-.450164-.675-1.129922 1.574-.903336-1.803.226586-3.377 2.708004-6.752 2.708004-6.752s3.384754-4.276 4.513674-4.951c1.128919-.675 1.3535-1.35 2.934589-2.251 1.578082-.899 4.963838-3.15 4.963838-4.276s1.354504-4.052 1.354504-4.728c0-.676 0-1.35-.450165-5.177-.450164-3.827.450165-2.926-.903336-6.527s-1.581089-8.103-2.48242-9.228c-.901331-1.125-.45217-4.053-.45217-4.952s1.581089-3.151 2.25784-4.051c.67675-.901 3.610337-4.503 3.610337-4.503s4.512671-5.176 6.092758-7.651c1.580087-2.477 3.159171-4.727 4.287088-5.627 1.127917-.9 3.836923-2.928 5.416007-5.178 1.579084-2.25 4.739258-6.526 4.965844-7.203.22458-.674 2.029248-2.925 2.029248-2.925s2.48242-2.927 2.93459-4.502c.450164-1.576 2.705998-10.354 2.254831-9.904-.451166.45-3.158168.9-4.061504 1.125-.901331.226 1.355506 1.125-5.190424.676-6.54593-.449-9.927676.675-9.927676.675-2.032256-.451-3.61134 1.8-4.289093-1.351s-1.12892-4.951-2.481418-7.202c-1.352498-2.251-2.257839-3.151-4.287088-6.078-2.030251-2.925-1.806672-1.576-3.612342-3.825-1.80567-2.249-2.256837-1.577-3.384754-4.502-1.127918-2.926-2.030251-1.8-3.384754-5.852-1.354504-4.052-2.256837-4.503-2.933588-6.753-.67675-2.25-1.579084-2.927-2.031253-4.952-.451167-2.026-5.640589-12.379-6.318341-13.055-.677753-.674-1.80567-4.277-1.580087-3.601.226586.675 3.385757 2.926 3.385757 2.926s1.804667-.676 2.48242-.676c.677753 0 3.384754 2.477 3.384754 3.376s4.741262 5.178 5.868177 8.329c1.127917 3.151 2.484426 5.402 2.708004 6.302.223578.9 2.48242 4.502 3.385756 5.853.903337 1.351 3.834919 4.051 4.286086 5.402.451166 1.351 4.740259 5.852 4.740259 8.778s2.029249 6.752 2.255835 7.652c.226586.9 4.287088 2.027 4.287088 2.027l5.41701-1.351s8.123008-5.178 9.026345-5.178c.903336 0 8.125014-3.376 8.125014-3.376s2.932584-2.7 4.962835-4.275c2.030251-1.575 4.28809-4.501 4.74026-5.853.452169-1.352 1.3535-1.575 3.158168-3.602 1.804667-2.027 4.28809-4.051 2.709006-5.402-1.579084-1.351-2.483423-.9-4.739257-3.151s-2.031253-1.8-3.61134-4.727c-1.580087-2.925.225583-6.302-3.160173-2.925-3.385757 3.377-2.030251 4.276-5.416008 4.953-3.383751.674-4.739257 2.925-6.318341.674s-3.158168-.9-4.062507-4.277c-.904339-3.377-1.580087-3.602-1.804667-4.951-.224581-1.349 0-1.351-1.80567-4.728-1.805671-3.377-.451167-8.553.67675-5.627 1.127917 2.926 2.933587 3.376 5.868177 5.402 2.932584 2.025 4.28809 3.602 6.995091 3.827 2.708004.224 4.964841 0 5.416008.449.451167.449.902334-.224 2.031253.225 1.12892.449 1.578082-.674 2.030251 1.125.45217 1.799 2.933587 2.026 4.061505 3.151 1.127917 1.125 1.128919.676 4.063509 1.125 2.93459.449 6.997097.451 6.997097.451l4.286085-.226 4.964841.449s3.612342 2.026 4.513674 2.026c.901331 0 1.127917 2.477 3.384754 3.827 2.256836 1.35 2.708003 1.575 4.061504 3.151 1.353501 1.576 1.12892 2.251 2.933587 3.826 1.804668 1.575 4.741263-.224 5.192429-.898.449162-.676 2.705999-1.801 2.256837 0-.449161 1.801 2.254832 1.124 1.578082 5.402-.676751 4.278-1.12892 3.15 0 6.077s6.092758 11.929 6.319344 14.63c.226586 2.701 1.579084 1.801 1.804667 4.278.225583 2.477 1.579084 3.375 1.579084 5.176 0 1.801 1.581089 2.25 1.80567 3.602.227589 1.351 2.709006.224 3.385757 0 .677753-.226 3.835921-3.152 3.835921-3.152s1.356508-.449 1.128919-2.701c-.227588-2.252 0-1.8 0-5.176 0-3.376-1.3535-3.376-.67675-6.751.67675-3.375 2.481418-5.403 2.933587-6.978.45217-1.575 2.256837-4.276 3.158168-4.502.901332-.226 5.868177-2.7 6.997097-4.277s2.933587-3.376 4.739257-5.176c1.80567-1.8 4.963838-4.051 5.641591-3.376.677753.675.451167.45 1.580087.45s3.159171.901 4.738255 1.126c1.580086.225 4.740259 4.051 5.41701 6.077.67675 2.026.225583 1.575 2.708003 4.502 2.482421 2.925 4.739258 1.124 4.739258 4.726s0 3.376 1.128919 4.727c1.12892 1.351 2.481418-2.476 3.834919-2.025 1.3535.451 1.579084-.45 2.707001 3.151s1.804667 3.602 2.032256 7.203c.224581 3.601-.226586.225-.226586 3.15 0 2.927-.226586 3.152.226586 5.852s2.028246 3.603 1.804667 4.053c0 0 1.353501-3.826.901332-6.528-.45217-2.702 0-6.526 1.128919-7.651 1.12892-1.125 2.25784-2.251 3.159171.675.903336 2.925 1.354503.675 3.384754 4.051 2.032256 3.377 3.836924 2.7 4.062507 4.276.225583 1.576 1.356508 1.802 2.933587 3.151 1.580087 1.351 2.933587-.224 4.739257-1.575s6.769509-6.303 6.997097-8.329c.224581-2.025 2.255834-1.576-1.355506-6.751-3.61134-5.175-3.61134-6.978-7.447261-10.129-3.833915-3.151-6.091755-3.376-3.157165-7.428s4.28809-6.752 6.092758-5.626c1.804667 1.126 4.962835.899 4.962835 5.402s-.902333 9.453 2.256837 4.051c3.159171-5.402 4.74026-8.553 3.835921-7.651-.904339.902 2.031254-1.801 2.031254-1.801s.226586-2.026 4.063509-2.926c3.836924-.9 4.962836-1.351 6.318341-2.026 1.353501-.676 5.190424-5.178 5.867175-7.203.67675-2.025 2.48242-5.627 2.031253-7.202-.451167-1.575-2.709006-9.228-3.160173-9.004-.450164.226-.224581.226-3.157165-2.925-2.935593-3.151-4.965844-5.402-5.417011-6.753-.451166-1.351-1.580086-1.576-.226586-3.376 1.353501-1.8 2.032256-1.575 2.25784-3.151.225583-1.576 2.029248-2.926-1.355506-1.8-3.384754 1.126-.902334.451-3.835921.226s-10.605429 1.575-6.768505-3.151c3.836923-4.726 4.961833-7.6520001 5.639585-7.6520001.677753 0 4.06351-3.827 4.288091-.226.226586 3.6010001 1.579084 2.7000001 1.80567 4.9510001.226586 2.251 4.739257-2.475 4.739257-2.475s1.579084.45 2.707001 1.575 1.12892 4.727 1.12892 4.727-.902334-1.126 1.580087.675c2.48242 1.801 5.189421.9 5.189421 4.727 0 3.827 0 4.052 1.580087 4.952 1.580086.9 3.158168.451 4.514676-.675 1.356509-1.126 3.609335-5.177 3.609335-5.177s.225583-1.576-3.384754-3.827-5.867174-3.825-7.219672-4.951c-1.352498-1.126-.903337-4.5010001.449161-5.8530001 1.352498-1.352 2.031254-2.026 1.580087-3.826-.451167-1.8.677753-3.152 4.062507-2.927 3.384754.225 4.061504-.224 4.061504-.224s.678756.449.678756-.901 4.286085-7.653 3.157165-7.653.228591-1.575-.451167-4.051 2.256837-6.302-.224581-8.103c-2.481417-1.801-3.160173-2.702-4.739257-5.402-1.579084-2.7-1.355506-3.151-7.221677-3.827-5.866172-.676-8.575179 1.351-9.929682-.449-1.354503-1.8-2.030251 2.7-2.932584-2.702-.902334-5.402 1.354503-9.004 1.354503-9.004s3.610337-2.25 4.511668-3.826c.901332-1.576 4.512672-2.251 7.449267-1.125 2.936595 1.126 7.219672.9 10.832015 1.577 3.610337.674 3.384754 2.925 5.190424 0 1.804667-2.928 0-4.277 1.3535-5.853 1.353501-1.576 2.933588-4.052 4.061505-2.477 1.127917 1.577 3.387762 3.151 5.193432 1.125 1.804667-2.025 2.481417-2.25 2.481417-2.25l.900329.901s2.031253-1.127 2.031253.898c0 2.027 2.032256 4.278.903337 5.853-1.12892 1.575-2.707001 1.351-2.707001 5.177 0 3.826 0 3.152 2.480415 6.304 2.483423 3.15 4.062507.449 4.513673 3.826.451167 3.377.901332 2.702 3.385757 4.952 2.484426 2.25 2.029248 2.25 3.835921 3.601s2.709006 2.702 2.709006.451.225584-3.376 0-5.402c-.227588-2.025 1.80567-3.602.449162-6.978s-.224581-3.151-2.932585-5.627c-2.708003-2.476-4.514676.451-5.415004-3.151-.900329-3.602 4.286085-5.177 5.641591-5.627 1.355505-.45 3.382748-3.151 3.833915-1.35.451167 1.801-3.383751 8.328 3.161176 1.35s3.610338-4.051 3.610338-4.051 3.384754-.45 4.061504 0c.675748.451 2.484425-2.026 1.804667-1.8-.679758.226-7.218669-3.602-7.218669-3.602l-4.741263-2.7s1.581089-1.126 2.709007-.9c1.127917.226 1.355505-2.251 2.484425-2.477 1.12892-.226 8.799759 1.577 10.380848 2.477 1.581089.9 7.219673 1.125 6.54192.675-.677753-.45-4.286085-3.151-4.512671-4.052-.224581-.9-8.124012-2.701-10.60543-2.476-2.483422.224-4.738254.899-6.769508.224-2.031253-.675-4.96484-2.476-6.544927-2.476-1.580087 0-21.437444-3.826-22.339778-3.601-.902333.225-2.257839 4.501-2.93459 3.826-.67675-.675-1.804667-.676-4.965843-1.576-3.161176-.9-7.446258-1.576-13.088852-2.025-5.642593-.449-9.475506.45-11.055593-1.351-1.580087-1.801-4.963838-1.125-8.800762-1.351-3.835921-.224-8.349594 0-10.380848 0-2.031253 0-6.768505-.224-7.897425-.45s-2.48242-1.801-3.835921-2.025c-1.355506-.226-1.129922-.675-3.836924-1.125-2.707001-.45000004-2.48242-3.37600004-3.384754-.90100004-.902333 2.47700004-.452169 1.80100004-1.80567 2.70100004-1.3535.9-2.708003 2.701-3.61134 2.701-.903336 0-4.511668.225-5.190424-.225-.678755-.45-1.80567-.9-4.062507-.9s-2.256837.224-5.190424-.226-5.190424-.226-7.898428-1.575-2.708004-2.25100004-4.96484-2.02600004c-2.256837.22500004-2.254832-.45-5.416008-.45-3.161176 0-6.994089 1.80100004-9.026345 2.02600004-2.029248.225-6.542922-.226-8.123009-.901-1.580086-.67500004-2.031253-2.25000004-7.89943-1.57600004-5.867175.676-9.251929.676-8.124011-1.125 1.127917-1.801 2.48242-3.601 3.15917-3.826.677753-.225 2.255834-1.35 1.126915-1.8-1.126915-.451-2.255835-1.125-4.962836-1.351-2.707001-.226-2.484425.9-6.544927.45-4.060502-.45 2.256837-1.575-6.091755-1.35-8.349595.226-10.380848.9-11.283182.9-.902334 0-2.032256-1.8-4.288091.9-2.255834 2.7-5.418012 4.276-9.929681 4.501-4.511669.225-4.739257-.45-9.025342 1.125-4.286086 1.575-6.997097-.45-6.093761 3.15100004.903337 3.601 2.031254 4.952 2.031254 5.627 0 .675-2.031254 5.177-4.512672 2.476-2.481417-2.701-6.997096-13.28000004-4.965843-6.077 2.030251 7.202 6.542922 9.679 2.256837 10.804s-3.837926-.45-4.514676-.901c-.675748-.45 0-3.601-.225584-5.402-.225583-1.801-.67675-2.926-1.579084-3.826-.902333-.9-.677753-2.251-2.48242-2.701-1.804668-.45-.225584-1.35100004-3.159171-1.35100004s-5.415005-1.801-4.738254 2.25100004c.67675 4.052 1.352498 1.351 3.157165 5.177 1.804668 3.826 5.190424 1.125 2.709006 3.826-2.48242 2.701-9.026345 1.801-10.606431.676-1.580087-1.125-1.127917.45-4.06351-1.576-2.935592-2.026-2.029248-3.602-5.414002-2.026s-4.513674 4.502-5.868177 3.376c-1.354503-1.126-4.512671 1.575-5.641591.226s-5.642594-1.351-6.543925 0c-.901331 1.351-3.61134 1.125-7.447261 2.926-3.835921 1.801-2.709006.224-7.447261 4.051-4.738254 3.827-7.448263 6.977-9.026345 4.501-1.580086-2.475-10.156267-6.752-6.77051-7.428 3.385756-.676 4.96484-2.025 6.77051-.45s4.74026 1.126 5.189422 0c.449161-1.126 2.483423-2.251-.225584-3.601-2.709006-1.35-2.933587-.451-7.220675-2.026-4.28809-1.576 0-1.125-5.868177-2.026-5.868177-.901-8.350597-1.35-9.929681-1.8-1.579084-.45-3.835921 0-6.091755-.225-2.255835-.225-3.835921-.675-5.868177-.45-2.030251.225-3.158168-.225-5.867175 1.801-2.709006 2.026-4.740259 2.926-6.544927 4.501-1.804667 1.575-6.542922 4.727-7.897425 5.853-1.354503 1.126-6.093761 4.726-6.544927 6.077-.451167 1.351.451166 2.476-1.354504 3.376-1.80567.9-3.610337.9-4.96484 1.125-1.354503.225 0-2.026-1.354503.225-1.354504 2.251-.902334 10.354.225583 9.228 1.127917-1.126.451167-4.726 5.416008-1.349 4.96484 3.377 8.125013 2.925 7.898427 6.076-.226586 3.151 3.384754 2.926 3.835921 3.602.451167.674 2.708004-.901 2.708004-.901s4.964841-3.151 4.964841-4.726c0-1.575 3.15917-5.177 3.15917-5.177s-2.257839-1.125-2.257839-3.376.678755-2.927 1.12892-5.178c.450164-2.251-2.482421.001 4.28809-4.277 6.770511-4.278 7.220675-1.349 7.220675-1.349s.901331.9-.226586 2.25-3.159171 4.953-3.610338 5.402c-.451166.449 2.031254 4.052 3.158168 4.052 1.12892 0 3.385757-.901 4.74026-.676 1.354504.226 3.610338-.674 4.287088-.224.677753.45 2.256837 1.8 1.127917 2.926-1.128919 1.126-3.61134 2.475-5.415005 2.026-1.803665-.449-4.514676-3.602-2.934589.9 1.580086 4.502-.225584 5.627-1.580087 5.402-1.352498-.225-4.287088-2.475-3.835921.901.451167 3.376-2.932585 5.626-3.610337 5.626-.677753 0-2.030251-.225-2.030251-.225s-2.032256-.226-3.159171-.226c-1.12892 0-3.385757 1.125-4.062507 2.026-.677753.9-1.580087.226-2.708004.226-1.127917 0 0-1.351-2.256837-1.801-2.256837-.45-3.610337-.9-4.963838 0-1.3535.9-3.384754 1.35-4.28809.675-.903336-.675.452169-2.252-1.354503-1.35-1.806673.902-3.159171 3.376-3.835921 3.602-.67675.224 2.031253 0-.67675.224-2.708004.226-3.835921.902-5.190425 1.351-1.354503.449.451167 3.151-2.031253 4.051-2.48242.9-.675748-1.125-3.159171.9-2.48242 2.027-2.934589 3.827-3.835921 4.052-.903336.226-.67675.675-2.708003.9-2.031254.225-1.804668.45-2.93459.675-1.129922.225.226586.676-2.255834.225-2.482421-.451-4.288091.451-3.836924 1.351.451167.9 8.800762 3.376 2.48242 3.151-6.318341-.225-4.287087.9-2.933587 1.8 1.353501.9 2.030251 1.8 2.708004 2.026.677753.226 1.804667 2.927 1.804667 2.927s1.80567-.226.677753 1.35.451167 2.026-.677753 4.052c-1.128919 2.026-1.127917.675-2.03025 1.125-.902334.45-2.256837 2.026-4.74026.675-2.483423-1.351-4.286086-2.026-7.220675-2.25-2.933587-.226-.903337-.675-2.933587.899-2.031254 1.577-2.482421 3.377-2.255835 5.402.225584 2.025.451167 4.7270001-.226586 6.0780001s-.67675 2.701-.226586 4.727c.45217 2.025 1.806673 2.927 1.806673 2.927s3.15917.449 3.835921.675c.67675.226 2.031253-.45 3.835921.674 1.80567 1.126 3.61134 1.577 4.739257.226s5.641591-2.926 6.997097-4.276c1.355505-1.35 2.255834-1.8 1.579084-3.151-.676751-1.351 1.354503-4.7270001 2.48242-5.4020001 1.127917-.675 3.610337-1.351 3.610337-1.351l2.708004-4.051s2.256837-2.477 3.384754-2.251c1.127917.226 7.446259 2.477 6.996094-.449-.450164-2.926.451167-3.827 1.127918-2.702.67675 1.125 2.48242.675 2.48242.675s.902334-.449 1.579084.226c.67675.674 1.579084 3.602 2.933587 4.276 1.354503.676 2.48242 1.351 3.385757 1.8.903336.449 1.80567 0 3.61134 1.576s3.610337 2.477 3.834918 3.151c.227589.6750001 1.806673 2.2510001 1.806673 2.2510001s1.579084.45 1.127917 1.351c-.451167.901-2.707001 3.602-3.835921 4.051-1.12892.449-4.061504-.451-2.933587.45 1.126914.9 2.708004 2.026 3.384754 1.35.677753-.675 4.963838-5.177 4.963838-5.177s-.225583.225 0-1.126 0-2.925 1.12892-2.25c1.127917.676 1.80567 1.576 2.256837.676.451167-.9.902333-.45-.226586-1.125-1.12892-.6750001-3.835921-4.5020001-5.190424-4.7270001-1.354504-.225-4.74026-2.477-4.74026-2.477s-.675748-.675-2.255835-2.475c-1.580086-1.8-2.030251-1.351-2.483423-2.927-.453172-1.576-1.80567-3.601.677753-3.151 2.483423.45 4.061505 2.025 6.318342 3.376 2.256836 1.351 1.806672 1.8 3.836923 3.151 2.030251 1.351 2.25784 2.702 3.835921 2.477 1.579084-.225 3.385757.9 3.385757 2.926 0 2.026.450164 4.2760001.901331 4.7270001.451167.451 1.804667 1.351 2.256837 2.251.452169.9 1.354503 3.151 2.030251 4.051.677752.9 1.354503 1.576 2.031253 2.702.67675 1.125.902334-.226 1.579084.225.677753.45 1.580087.224 1.580087-.676s.224581-2.476.224581-2.476 3.161175-.9 2.258842-1.351c-.902334-.451-3.612343-3.151-3.385757-4.051.226586-.9 0-2.7000001 1.126915-2.4750001 1.128919.224 2.257839 2.2500001 4.740259.449 2.482421-1.801 5.416008-2.701 4.512672 0-.903337 2.7010001.227588 3.1500001 0 6.0770001-.224581 2.927.904338 2.026 2.484425 3.602 1.580087 1.576 2.707001 1.802 3.834918 2.251 1.127918.449 2.933588.226 4.74026.451 1.806673.225 2.933587-.676 4.513674-.225 1.578081.45 5.189422-.226 5.867174.225.677753.451 3.385757-.9 3.610338.675.225583 1.576 1.12892-.225.452169 3.376-.67675 3.601-1.580086 6.077-1.580086 6.077-2.482421 4.727-3.384754 5.853-4.513674 6.078-1.126915.225-1.804667.9-3.834918.675-2.031254-.226-4.513674 0-7.447261-.675-2.933588-.675-8.350598.675-10.606432-.676s-5.416008-.225-6.771513-1.8c-1.355506-1.575-3.609335-1.351-4.512672-2.251-.903336-.9-1.3535-3.375-1.3535.226s-2.031254 3.826-2.48242 5.627c-.451167 1.801.675747.9-1.806673.675-2.48242-.226-3.159171 1.125-6.769508-1.575-3.610338-2.7-5.416008-2.701-7.220675-3.827-1.804668-1.126-3.61134 2.025-5.416008-1.575-1.804667-3.6-4.28809-.676-4.513673-3.602-.225584-2.927 0-2.7.225583-4.501.225583-1.801 2.708004-3.376 1.580087-4.051-1.127918-.675-.226586-1.801-1.80567-1.125-1.579085.676-3.835921.9-5.641591 1.575-1.805671.676 4.061504 0-4.739258.676-8.800761.676-11.284184 1.575-11.284184 1.575s-.676751-.45-1.80567.45c-1.12892.9-2.708004 2.251-4.287088 1.576-1.579084-.676-2.48242-.451-3.835921-.225s-2.255834-1.125-3.835921 0c-1.580086 1.124-3.384754 1.575-4.062507 1.124-.678755-.456-1.807675-2.256-1.807675-2.256z" id="eurasia-africa" class="pqXVuHkm_0 continent"/>
        <text id="Work" font-family="Helvetica" font-size="12" font-weight="normal" fill="#000000">
            <tspan x="539" y="92">Work</tspan>
        </text>
        <path d="M498.305 280.479c-.675 2.477-3.151 6.077-3.151 6.077l-4.503 2.251s-1.573 1.351-2.475 1.576c-.9.224-3.151 1.351-3.151 1.351s-2.025-.451-1.351 1.574c.675 2.026.901 4.503.675 5.177-.224.676-.224 2.027-.224 3.828 0 1.801-.675 4.05-1.801 4.5-1.126.45-2.251.901-2.026 2.477.225 1.576.226 6.302.226 6.302l2.927 4.502s.9-.675 2.701-.675c1.801 0 3.601-1.574 3.601-1.574s2.027.448 1.8-2.026c-.225-2.477.902-5.402.675-6.078-.224-.675 2.027-3.602 2.027-4.276 0-.676 2.251-3.825 2.251-4.952 0-1.127 1.575-2.926 1.8-4.275.225-1.349.45-4.502.9-5.402.45-.9.676-1.801.676-2.701v-2.701l-1.577-4.955z" class="pqXVuHkm_1 shape"/>
        <path d="M617.939178 311.781692c-.675.899-1.125 10.579-1.575 11.704-.45 1.125-1.351 6.978-.899 8.327.452 1.349 1.124 6.303.675 7.879-.449 1.576.225 6.527-.902 6.302-1.124-.226-1.573.226-1.573.9 0 .676 1.573 2.025 1.573 2.025s2.703.001 3.828-.225 3.376-1.351 5.177-1.351c1.801 0 2.927-1.351 4.501-1.351 1.576 0 4.953-1.124 5.853-.675.9.449 2.25-2.701 3.826-2.025 1.576.676 4.953-1.576 6.528-1.576 1.575 0 2.251-2.477 4.052-2.025 1.801.452 5.177-.9 6.753-.227 1.573.677 4.051-2.25 5.176 0s4.503 3.152 4.503 4.277-.228 3.602-.228 3.602l2.702-.226s4.275-2.701 4.952-2.701c.677 0 2.251-2.25 2.251-1.124 0 1.124-1.352 3.602-1.801 4.726-.45 1.126.449 2.477.449 2.477s2.253 1.125 1.352 3.15c-.901 2.026.224 1.577 0 3.151-.226 1.576 0 .9.898 1.8s2.479 2.479 3.828 2.252c1.349-.227 1.8-1.575 2.926-.9 1.125.675 3.375.225 4.05 1.126.678.899-4.275 3.15 4.278-.675s9.451-4.728 10.577-6.079c1.126-1.351 2.479-2.7 3.377-3.601.898-.901.227-.675 2.926-2.701 2.701-2.025 2.701-1.125 5.179-4.952s4.275-5.176 4.727-5.852c.452-.676 1.35-.9 1.575-3.603.225-2.7 2.025-5.176 2.025-6.076 0-.9.675-2.249.45-3.826-.225-1.577.901-3.825-.45-6.076-1.351-2.251.675-3.15-1.351-4.053s-3.376-.449-3.826-2.025c-.45-1.576-2.252-1.351-2.927-5.627-.675-4.276-3.376-4.728-3.376-4.728s-2.701-1.125-2.026-1.574c.675-.449.901-3.603.677-4.503-.226-.9-.226-2.926-.9-4.275-.675-1.352-1.126-3.151-1.801-4.728s-1.8-2.026-2.251-3.826c-.451-1.8-1.126-2.477-1.35-2.926-.227-.45-.678-2.7-1.126-.226-.45 2.476-1.352 7.202-1.352 7.202s-1.801 3.828-2.476 4.953c-.675 1.124-1.35 4.051-2.475 3.825-1.125-.226-1.803 1.127-2.701.9-.898-.227-2.251.226-2.926-.449-.675-.675-2.476-2.476-3.377-2.702-.9-.224-1.575-2.024-2.251-2.024-.676 0-1.801-1.577-1.575-2.477.224-.9.449-2.925.675-3.826.224-.9 1.576-2.927 1.576-2.927s0-1.35-1.126-1.35-1.351 0-3.827-.226-3.149-.45-4.052-.45c-.903 0 .902-.45-1.575.225s-3.601 2.477-5.177 4.053c-1.573 1.575-.224 1.124-1.573 1.575-1.349.451-1.126-1.126-2.027 1.351-.901 2.477.451 3.15-.227 3.601-.678.451-5.4-1.575-5.4-1.575s1.125-.226.224-1.351-1.8-2.7-3.149-2.025c-1.349.675-2.479 1.126-3.377 2.251-.898 1.125-.901 2.025-1.576 2.925-.675.9-2.475.9-2.701 1.801-.226.901-.225 3.151-.899 3.376-.675.226-.9-.898-1.575-1.124-.675-.225-.451-2.026-.9-.9s-.9.899-1.575 2.7c-.677 1.801-.901 3.377-1.576 3.602-.675.225 0 .45-2.027 1.576-2.024 1.125-2.475 1.125-5.4 2.476-2.925 1.351-2.25 1.351-4.276 1.575-2.025.226-2.477.901-3.827 1.126-1.352.225-2.25.449-3.602 1.8-1.352 1.351-2.475 1.8-3.375 2.026-.9.226-1.805 1.127-1.805 1.127z" id="australia" class="pqXVuHkm_2 continent"/>
        <text id="Contact" font-family="Helvetica" font-size="12" font-weight="normal" fill="#000000">
            <tspan x="646" y="322">Contact</tspan>
        </text>
        <path d="M687.823 221.958c-.899 1.352-3.825 5.402-4.95 5.628-1.126.224-2.252 1.351-3.152 1.125-.9-.226-2.926 0-3.601 2.926-.675 2.926-1.801 4.502-2.478 4.276-.677-.226 1.125 4.276-2.7 2.477s-2.475 1.576-2.926 2.477c-.451.901.675 3.376.9 4.276.227.9.9 2.476 1.801 3.825.901 1.349 1.575 2.926 3.151 2.478 1.576-.448 6.526 0 6.526 0s1.803.675 2.927.675c1.125 0 1.351-.45 2.025-.45.674 0 2.025-2.252 1.801-2.476-.225-.227-.899-.901.45-2.252 1.349-1.351 2.926-1.8 3.152-3.376.226-1.576-.45-1.575.225-2.477.675-.902 2.25-.673 1.801-1.575-.449-.902.449-.675-.451-2.477-.9-1.802-2.026-2.476-1.126-4.727.9-2.251 1.803-2.701 1.577-4.051-.226-1.35 1.125-1.801-.451-3.377-1.574-1.574-2.25-2.025-3.376-2.477l-1.125-.448z" class="pqXVuHkm_3 shape"/>
        <path d="M731.939 244.467c.902-.225 4.052-2.476 4.278 1.576.226 4.052.448 2.925 1.801 5.176 1.353 2.251 2.248 2.928 3.824 1.802 1.576-1.126 3.376-1.127 3.826-3.151.451-2.026.451-2.026 1.801-2.026 1.35 0 1.801-.225 2.479.677.674.898 1.122-.002 4.05 1.574s5.401 1.124 7.204 2.701 2.701 1.352 5.176 2.251c2.475.899 1.35-.45 3.601 2.026s1.353 3.15 2.476 4.276c1.125 1.125 2.027-.901 1.576 1.8-.451 2.701-3.601 0 1.126 3.825s5.402 4.504 6.976 5.628c1.577 1.126 2.702 2.477 1.353 2.477s-5.628 0-6.077-.676c-.449-.676-2.476-1.126-3.828-2.701-1.349-1.574-4.275-2.701-4.949-4.051-.677-1.352-1.577-1.801-2.702-1.801s-2.25 1.35-3.827 2.926-.898-.899-2.926-.225c-2.027.676-4.275-.226-5.402-1.126-1.127-.9-.899-2.25-2.699-1.575-1.8.675-2.926.225-2.251-1.125.675-1.35.224-3.152.224-3.152s.677-2.251-.898-2.7c-1.575-.449-1.576-2.025-3.152-2.477-1.576-.452-4.051-1.575-4.051-1.575s-.225 0-.901-.225-.675-.226-2.476-.675c-1.801-.449-3.152-.002-4.051-1.126-.902-1.125-.451-2.701-.451-2.701s3.601.45 0-2.251l-3.601-2.7s.448-.226.224-.676c-.227-.452 2.247 0 2.247 0z" class="pqXVuHkm_4 shape"/>
        <path d="M630.65 225.78s1.125 1.127 2.926.901c1.801-.226 3.149 3.601 4.277 4.951 1.124 1.351 1.801 2.026 4.276 3.602 2.475 1.575 2.25-1.351 5.627 3.376s1.8 1.801 3.376 4.726c1.575 2.929 2.476 4.503 3.376 5.18.9.677 1.576 2.474 1.802 3.15.224.675 1.799 2.7 1.799 3.376 0 .676.451 2.476-.899 4.051-1.35 1.575-2.477 1.801-2.477 1.801s-2.701-1.351-3.601-2.701c-.9-1.35-2.025-2.476-3.602-5.176s-3.376-5.628-4.276-6.978c-.9-1.35-2.251-2.703-2.926-4.052-.675-1.349-2.476-5.402-3.376-5.853-.9-.451-1.126-1.8-2.702-3.376-1.574-1.576-1.35-2.926-2.025-3.826-.675-.9-2.25-2.928-2.25-2.928l.675-.224z" class="pqXVuHkm_5 shape"/>
        <path d="M192.868 401.35c-1.576-.9-4.952-2.476-6.077-3.376-1.125-.9-4.501-5.854-4.501-5.854l-2.477-4.727s-2.925-3.601-2.25-4.951c.675-1.351 2.026-2.251 2.026-2.926 0-.675 1.35-2.477.224-3.151-1.125-.676-1.125-.9-1.801-2.926-.675-2.025-.675-3.828-1.575-4.277-.9-.449-1.576-3.376-2.476-3.601-.9-.225-1.801-1.801-1.801-1.801l-1.351-18.232s-.451-8.327-.9-10.129c-.449-1.802.675-5.626-.451-9.003-1.126-3.377.226-7.427-.45-8.778-.676-1.351.45-5.176-.225-8.777-.675-3.601 2.701-8.103 0-9.453-2.701-1.35-.675-3.377-2.926-3.377-2.251 0-3.826-1.126-5.852-2.7-2.026-1.576-5.853-4.503-6.978-5.629-1.125-1.124-4.727-4.051-5.852-4.951-1.125-.9-2.251-4.727-3.151-5.853-.9-1.124-1.35-4.5-2.701-6.526-1.351-2.025-3.151-5.401-3.602-6.077-.451-.676-5.402-6.527-5.402-6.527l.45-3.601s3.376-2.026 2.926-2.701c-.45-.675.226-1.352-1.351-2.701s-1.351-3.828 0-4.952c1.351-1.127 3.376-4.728 3.376-4.728l3.376-5.626s2.702-2.928 2.702-4.953c0-2.025 3.826-3.375 1.575-5.176-2.251-1.801-1.125-3.377-1.801-4.728-.676-1.351-.225-2.25 1.801-3.601s5.627-6.302 5.627-6.302 2.701-.676 3.376-.676c.675 0 1.801-7.204 3.827-2.477s2.701 2.251 2.026 5.627c-.675 3.376.9 2.702 1.8 1.802.9-.9-.451.675 1.35-3.378 1.801-4.053 1.126-5.401 2.251-4.275 1.125 1.126 1.575 1.351 3.601 2.026 2.025.675 2.701.449 3.375 1.8.675 1.351.451-.45 4.277.226s9.228-1.351 8.553.899c-.675 2.251-2.026-.225 1.125 2.251s3.602 2.926 5.402 3.377c1.8.451 3.376.225 6.078 2.926 2.702 2.701 3.376 2.926 4.051 4.275.675 1.349 1.8.451 2.926 1.801 1.126 1.35 2.701 1.352 4.276 1.352 1.575 0 0-1.352 2.476.45s4.277 2.024 5.402 5.626c1.125 3.602 3.376 3.377 1.575 6.979-1.801 3.602-5.401 5.177-3.826 4.952 1.575-.226 4.502-1.577 5.402-1.351.9.224 1.35-.675 2.701 0s1.576-.9 1.351.675c-.225 1.575-.226 0-.226 1.576s-.45-1.576 2.251-.9 1.125-1.352 4.276 1.575 3.152 2.027 4.276 3.602c1.126 1.574 2.251-.899 2.927-.225.676.674 2.701.224 4.727.675 2.026.451.675-1.35 3.827.675 3.15 2.025 6.302 1.35 6.977 3.151.675 1.801 2.477 1.125 3.376 2.251s1.35-.451 2.251 1.126c.9 1.574 3.602 1.124 3.151 2.699-.451 1.577.674.676.224 2.926-.45 2.25-2.026 5.854-3.375 6.753-1.349.899-1.35 2.026-2.251 3.151-.901 1.125-.675-1.125-1.801 2.026s-.9 3.602-1.8 6.527c-.9 2.925-.225 0-.9 2.926s-.225 4.727-.9 8.104c-.675 3.377-.45 3.376-.9 5.852-.45 2.476 1.125-1.124-.901 4.051-2.025 5.178-2.25 4.951-2.925 7.203-.676 2.252.225.45-2.251 1.801s-1.125.9-4.052 1.801c-2.925.9-6.527 1.802-7.652 2.026-1.125.224-5.627 1.575-4.276 4.275s1.351 3.152 0 6.529-3.376 4.502-3.376 6.076c0 1.575-.901 3.15-1.125 4.276-.226 1.126 2.025-1.126-.675 2.251s-2.926 2.476-3.827 4.502c-.9 2.025 0 .449-.9 2.025-.9 1.576-3.151 2.25-3.151 2.25s.224 1.126-.676.676c-.9-.45-.675.225-4.052-.676s-3.826-3.149-4.276-1.575c-.45 1.575.225 2.477 2.251 4.052 2.025 1.576 5.402 2.025 4.501 3.602-.901 1.577-.9 1.576-1.575 2.476-.676.901.9.225-.676.901s-2.476 3.602-3.151 3.602c-.675 0-1.126 1.125-2.026.675-.9-.45-3.15-2.026-3.601-1.126-.451.9-1.351-1.126-1.126 2.025.225 3.151.676 4.952-.45 5.628-1.126.676-3.827 0-3.827 0l-.45-1.126-1.575.45s-.675 2.701.45 3.151c1.125.45.9.899 2.025 2.25s.451 3.827.451 3.827 0 .676-1.125 1.801-1.576 2.026-1.801 2.701c-.226.675-1.576 3.602.45 3.376 2.025-.226 3.602-1.351 3.602 2.251s.9 2.702-.225 5.177c-1.126 2.476-2.026 2.701-2.251 4.951-.224 2.251.226 2.476.676 3.827.45 1.351 1.576.675.45 1.351-1.123.675-4.499.001-4.499.001z" id="south-america" class="pqXVuHkm_6 continent"/>
        <text id="Skills" font-family="Helvetica" font-size="12" font-weight="normal" fill="#000000">
            <tspan x="182" y="286">Skills</tspan>
        </text>
        <path d="M134.796 218.132l-1.575-2.25s-.675-1.352-1.801-1.576c-1.126-.224-3.602-3.151-3.602-3.151s-1.125-.9-1.125-2.475c0-1.575-.901-4.051-.226-6.752.675-2.701.901-6.077.676-6.978-.226-.9 1.125-1.125-.45-2.026-1.575-.901-4.727-1.125-6.753-1.125-2.025 0-4.502.676-4.952.9-.45.225 2.476-6.752 2.926-7.877.45-1.125 2.476-6.078 2.476-6.752 0-.676.675-.901-.675-1.8s-3.601-1.351-4.952-.676c-1.35.676-1.125-.9-2.25 1.8s-2.251 5.628-3.602 6.078c-1.351.45-4.051 1.801-4.051 1.801s-3.376-.225-4.502-.45-5.852-2.701-6.752-4.276c-.9-1.576-1.35-4.953-1.35-6.527 0-1.576 2.475-6.302 2.25-7.428-.225-1.126 2.477-5.627 2.251-6.303-.226-.676.45-2.926 1.125-3.826.675-.9 4.052-2.026 4.952-2.926.9-.9 2.476-2.025 4.051-2.476 1.575-.451 2.927-.9 4.052-.9 1.125 0 4.051-2.476 4.501 0 .45 2.476 2.477 1.575 3.602 1.8 1.125.225 1.351 1.351 3.151-1.575 1.8-2.926 3.601-3.827 3.601-3.152 0 .676 2.926-.224 3.376.451.45.675 1.351-.451 2.926.9 1.575 1.351 3.826 1.576 3.601 2.25-.225.675.9.675.9 1.351 0 .676.901-1.576.901 2.475s1.125 6.528 1.125 6.528 1.575 3.377 2.25 2.701c.675-.676 2.025-2.475 2.025-2.475s2.251-1.351.676-6.078c-1.576-4.726-.45-6.077-.9-7.653-.45-1.576-.451-2.477 2.25-4.502s9.228-6.527 10.804-7.427c1.576-.9 5.176-3.376 5.176-3.376s1.35-.675 1.576-2.476c.226-1.801 4.501-4.952 4.727-5.852.226-.9 3.152-3.15 3.152-3.15s3.15-1.802 2.925-2.926c-.225-1.125 4.052-3.15 4.727-3.15.675 0 4.277 1.124 4.277-.902 0-2.025 0-2.476 2.251-4.276 2.251-1.8 5.176-4.502 6.302-4.502 1.126 0 4.952-2.024 6.527-2.475 1.575-.451 6.528-2.702 2.026 0s-1.576 1.125-2.476 3.376c-.9 2.251-1.576 5.177 2.701 1.8s4.051-4.052 5.627-4.276c1.576-.225.45.675 3.826-.451 3.376-1.126 3.602-1.575 3.602-1.575s1.576-1.351.675-2.025c-.9-.676.901-1.576-2.476-.226s-3.151 1.576-5.402.9c-2.251-.676-5.627-.451-3.151-2.702s5.627-2.926 3.601-3.826c-2.025-.9-7.202.226-7.877.45-.676.225-2.251-.225-3.602 0s-.9-1.799 0-2.25c.9-.451 3.827-1.802 7.428-2.702 3.601-.9 12.38-1.125 14.405-1.125 2.025 0 4.726.451 6.302-.675 1.576-1.126 4.727-2.925 5.177-3.827.45-.902 2.251-2.25 2.251-2.25s2.025-2.026.9-2.926c-1.125-.9-2.251-2.926-3.151-2.476-.9.45-.224 3.152-2.025.225-1.801-2.925-1.576-3.376-2.476-4.051-.9-.675-1.801-.226-1.125-3.376.676-3.15.45-4.502.45-4.502s.675-2.7 0-2.925c-.676-.226-1.125-.9-2.25-.226-1.126.675-7.428 3.827-8.778 4.502-1.351.675-3.152-2.701-2.477-4.276.676-1.577.225-.676-.675-2.926s-4.501-2.702-5.852-2.702-4.501-2.026-5.402-.675c-.901 1.351-5.626 5.626-6.528 6.077-.902.451-2.25-3.826-2.925 3.151-.676 6.979 2.476 9.004-1.125 9.454-3.601.45-6.753 2.475-6.753 2.475s-2.925.226-2.925 2.026c0 1.8-1.125 6.077-2.477 6.527-1.352.45-4.727-.224-5.852-1.575s.225-6.302.225-6.302l2.026-2.026s-14.405-2.25-14.181-3.151c.226-.9-4.276-2.475-4.726-3.826-.45-1.351-.676-4.277-.225-5.402.451-1.125 6.527-6.527 9.678-7.652 3.151-1.125 8.553-3.601 10.129-4.052 1.576-.451 4.276-.225 5.177-1.35.901-1.125 1.125-3.151 1.125-3.151s-.45-3.152.45-2.702c.9.45 2.476 1.126 2.701 1.801.225.675.226 2.251 1.801.449 1.575-1.802 3.602-2.476 5.402-3.375 1.8-.899 4.501-.675 6.078-1.575 1.577-.9 4.276-1.801 4.501-4.052.225-2.251-.675-1.575-1.801-1.801-1.125-.224.45.226-3.376 2.026-3.826 1.8-2.701.45-5.402 1.8s-2.927 1.576-3.151.451c-.226-1.126.45-2.926.45-2.926s.226-.226-1.35-.675c-1.576-.449-1.576.225-1.801-1.8-.225-2.026 1.125-4.952-1.125-4.052-2.25.9-4.276-.675-5.852 3.826-1.576 4.501-6.978 9.229-8.329 8.103-1.351-1.126-1.575-1.351-2.701-1.351-1.126 0-2.701-1.35-4.727-1.575-2.026-.225-8.104-.225-9.678 0-1.576.226-3.376-.9-4.728.451-1.352 1.351-3.375 3.151-3.375 3.827 0 .676-2.026-2.477-2.701-2.251-.675.226-2.477-.9-4.501-.9-2.026 0-3.377-1.126-4.051-1.126-.675 0 .674-1.801 0-2.026-.675-.224-15.307-.675-15.307-.675s-4.726-1.8-6.526-1.575c-1.8.225-6.752.449-10.58 1.125-3.828.676-9.454 2.926-11.254 3.151-1.801.226-5.852.226-6.527-.9-.676-1.125.225-.9-.676-1.125-.901-.225-.224-.675-2.25-2.25s.901-2.926-3.151-2.926-6.527-.226-10.128 0-11.029 2.025-11.929 1.8c-.9-.225-8.103 1.126-9.229.451-1.125-.676-6.753 2.475-7.877 2.25-1.125-.225-5.402.226-6.527.901s-6.528 2.025-4.727 3.151c1.801 1.126 1.575 2.25 1.8 2.926.225.676-1.8 2.25-1.8 2.25s-.451 0-2.926-.9-5.177-1.35-6.303-.675c-1.126.675-3.151 2.027-2.701 2.927.45.9 3.601 2.926 4.052 2.25.451-.676 1.576-2.025 2.926-1.8 1.351.226 3.377-.9 1.576 1.351-1.801 2.251-3.377 3.376-4.502 3.602-1.125.224-3.826.449-6.302.675-2.476.226-2.252-.9-4.502 1.351s-3.151.9-3.601 3.376c-.45 2.476-.9 2.475 0 3.151.9.676-1.801.9.225 1.575 2.025.676 4.501 1.351 4.276 2.025-.226.676 2.251-.899.9.9s-2.25 3.376.45 1.576c2.7-1.8 4.276-.451 6.527-1.576 2.251-1.125 4.502-1.35 5.852-2.25 1.35-.9 2.026-2.25 4.052-2.927s.675.226.9 1.351c.225 1.125 0 1.35 1.351.449s1.35-.224 3.151-1.35c1.801-1.126 3.826-2.251 5.177-1.576 1.35.676 1.8.676 2.701.676s-1.125-.226.9 0c2.026.224-.9-.676 5.852.9 6.752 1.576 8.554.45 9.003 2.926.449 2.476 1.351-.226 2.476 1.35s1.801.226 2.476 2.926 0 10.129-.45 11.029c-.45.9-.675.9-.45 2.926.225 2.025 2.926 11.705 2.026 12.379-.9.674-2.926.9-2.926.9l-1.125 4.051s-1.8 3.376-3.376 5.177c-1.576 1.801-3.601 4.052-4.727 5.626-1.125 1.576-2.026 4.278-3.601 5.853-1.575 1.575-2.926.9-2.476 4.276.45 3.376 0 6.977.45 9.454.45 2.477 1.576 5.852 2.476 7.203.9 1.351 1.576 1.35 3.151 2.475 1.576 1.125 3.602 2.477 3.376 3.602-.226 1.125.225 8.104.225 8.104s1.351 2.25 1.575 4.726c.226 2.477 1.801 4.952 1.801 4.952l1.351 2.927s.675.226 1.576 2.025.9 1.801 1.125 2.7c.226.902.226.676.226.902 0 .224-.226-3.827-.676-4.953-.45-1.126-.45-2.475-.9-3.826s.225-2.927-1.125-4.952-1.35-2.251-2.025-4.277c-.675-2.025-1.576-4.276-.675-4.727.901-.451 1.575-3.375 3.376 0s2.026 2.477 2.251 5.178c.224 2.701.9 3.602 1.575 4.726.675 1.125 2.25 4.953 3.151 6.527.9 1.576 0-.9 2.025 2.251 2.026 3.151 2.252 3.826 3.377 6.302 1.125 2.476 1.801 2.476 2.476 4.276.675 1.8.225 1.351-.226 3.376s.45 4.277.45 4.277 3.151 1.125 3.376 1.8c.225.675 3.376 1.8 3.827 2.701.451.901 3.376 2.025 3.376 2.025s2.476 1.576 3.375 2.026c.899.45 3.603.901 3.603.901s1.8.451 2.475.675c.675.225 2.701.225 2.701.225s1.801-1.35 2.476-.9c.675.45 2.251-.901 2.926.224.675 1.125 2.026 1.126 2.701 2.027.675.901 1.35.9 2.476 2.025s2.251.9 3.376 1.8 2.025.9 3.376.9 1.35 0 2.251.226c.901.226 1.35-.676 2.25.451.9 1.127 1.575 1.8 2.25 2.925.675 1.125 2.251 1.125 2.476 2.926.225 1.801.675 1.577.675 3.151 0 1.576.9 2.251 1.576 2.702.674.449 3.15 2.699 3.15 2.699l3.376.676 2.701 2.026 2.929.897z" id="north-america" class="pqXVuHkm_7 continent"/>
        <text id="About" font-family="Helvetica" font-size="12" font-weight="normal" fill="#000000">
            <tspan x="89" y="106">About</tspan>
        </text>
        <path d="M206.935 9.03l13.505-1.688s4.726 0 7.09-1.688 0-1.688 7.09-3.038c7.09-1.35 5.065-2.026 8.779-1.351 3.713.676 4.726.676 8.778 1.351 4.051.675 5.064-.337 8.777.675 3.713 1.012 5.402.675 8.441.675h9.453c4.727 0 9.116-2.701 10.804-1.013 1.688 1.688 2.701 1.013 8.441 1.688s8.103-.676 10.466 0c2.363.676 6.416-.337 11.142 0 4.726.337 7.09-.337 8.778-.337 1.688 0 3.375-2.364 5.739-.338s5.402-.675 5.739 2.026c.337 2.701 4.727.675.338 2.701s-3.714 1.688-6.753 4.389c-3.039 2.701 2.026 5.064-4.389 7.428s-7.428-1.351-9.116 2.701c-1.688 4.052 0 5.064-.337 7.09-.338 2.025-1.013 2.363-3.039 4.051-2.025 1.688-2.025 0-6.752 1.013s-8.103 2.026-10.128 2.026c-2.025 0-6.415 1.688-7.766 2.363s2.364 1.688-4.727 3.714-8.779 1.689-10.804 4.389c-2.025 2.7-1.351 3.04-2.701 4.728-1.35 1.688-5.402 8.441-7.428 6.753-2.025-1.688-3.039-1.351-4.727-3.039-1.688-1.688-2.701-4.051-3.714-5.402s-1.351-4.727-1.688-6.753c-.337-2.026-3.377-6.752 0-6.077 3.376.675 5.402.338 6.415-.337s2.026-3.039 2.026-3.039-.337-3.714-1.351-5.74c-1.014-2.026-.337-3.714-2.025-5.739-1.688-2.026-1.688-1.688-4.052-3.714s-1.688-3.039-5.402-3.376c-3.714-.337-4.727-1.351-6.078-1.013-1.351.338-5.739-2.364-1.013-2.701 4.726-.337 9.116.337 9.116.337s6.077-2.701 4.052-3.038c-2.025-.338 3.038-3.377-1.688-2.364s-10.128 2.364-11.479 2.701c-1.351.337-4.727.675-8.103 1.688-3.376 1.013-7.428.676-9.453 3.039-2.026 2.363 0 2.701-2.026 2.363-2.025-.337 1.688-2.363-3.038 0s-3.376 2.026-5.739 1.351c-2.364-.675-4.052-1.688-4.052-1.688s3.04-.338-1.35-.675c-4.39-.337-4.389-.337-6.077-2.364-1.688-2.027-.675-2.026.337-2.701 1.012-.675 1.689-2.027 1.689-2.027z" class="pqXVuHkm_8 shape"/>
      </g>
    </g>
  </g>
  <style>
    .pqXVuHkm_0{stroke-dasharray:2755 2757;stroke-dashoffset:2756;animation:pqXVuHkm_draw 5000ms linear 0ms forwards;}.pqXVuHkm_1{stroke-dasharray:98 100;stroke-dashoffset:99;animation:pqXVuHkm_draw 5000ms linear 0ms forwards;}.pqXVuHkm_2{stroke-dasharray:386 388;stroke-dashoffset:387;animation:pqXVuHkm_draw 5000ms linear 0ms forwards;}.pqXVuHkm_3{stroke-dasharray:94 96;stroke-dashoffset:95;animation:pqXVuHkm_draw 5000ms linear 0ms forwards;}.pqXVuHkm_4{stroke-dasharray:157 159;stroke-dashoffset:158;animation:pqXVuHkm_draw 5000ms linear 0ms forwards;}.pqXVuHkm_5{stroke-dasharray:94 96;stroke-dashoffset:95;animation:pqXVuHkm_draw 5000ms linear 0ms forwards;}.pqXVuHkm_6{stroke-dasharray:608 610;stroke-dashoffset:609;animation:pqXVuHkm_draw 5000ms linear 0ms forwards;}.pqXVuHkm_7{stroke-dasharray:1191 1193;stroke-dashoffset:1192;animation:pqXVuHkm_draw 5000ms linear 0ms forwards;}.pqXVuHkm_8{stroke-dasharray:403 405;stroke-dashoffset:404;animation:pqXVuHkm_draw 5000ms linear 0ms forwards;}.pqXVuHkm_9{stroke-dasharray:142 144;stroke-dashoffset:143;animation:pqXVuHkm_draw 5000ms linear 0ms forwards;}.pqXVuHkm_10{stroke-dasharray:96 98;stroke-dashoffset:97;animation:pqXVuHkm_draw 5000ms linear 0ms forwards;}@keyframes pqXVuHkm_draw{100%{stroke-dashoffset:0;}}@keyframes pqXVuHkm_fade{0%{stroke-opacity:1;}95.65217391304348%{stroke-opacity:1;}100%{stroke-opacity:0;}}
  </style>
</svg>
