<?xml version="1.0" encoding="UTF-8"?>
<svg width="232px" height="190px" viewBox="0 0 232 190" version="1.1" xmlns="http://www.w3.org/2000/svg" xmlns:xlink="http://www.w3.org/1999/xlink">
    <!-- Generator: Sketch 42 (36781) - http://www.bohemiancoding.com/sketch -->
    <title>Shape</title>
    <desc>Created with Sketch.</desc>
    <defs></defs>
    <g id="Page-1" stroke="none" stroke-width="1" fill="none" fill-rule="evenodd">
        <g id="world-map-146505" transform="translate(1.000000, -28.000000)" fill-rule="nonzero" stroke="#000000" fill="#FFFFFF">
            <g id="Group">
                <path d="M133.796,217.132 L132.221,214.882 C132.221,214.882 131.546,213.53 130.42,213.306 C129.294,213.082 126.818,210.155 126.818,210.155 C126.818,210.155 125.693,209.255 125.693,207.68 C125.693,206.105 124.792,203.629 125.467,200.928 C126.142,198.227 126.368,194.851 126.143,193.95 C125.917,193.05 127.268,192.825 125.693,191.924 C124.118,191.023 120.966,190.799 118.94,190.799 C116.915,190.799 114.438,191.475 113.988,191.699 C113.538,191.924 116.464,184.947 116.914,183.822 C117.364,182.697 119.39,177.744 119.39,177.07 C119.39,176.394 120.065,176.169 118.715,175.27 C117.365,174.371 115.114,173.919 113.763,174.594 C112.413,175.27 112.638,173.694 111.513,176.394 C110.388,179.094 109.262,182.022 107.911,182.472 C106.56,182.922 103.86,184.273 103.86,184.273 C103.86,184.273 100.484,184.048 99.358,183.823 C98.232,183.598 93.506,181.122 92.606,179.547 C91.706,177.971 91.256,174.594 91.256,173.02 C91.256,171.444 93.731,166.718 93.506,165.592 C93.281,164.466 95.983,159.965 95.757,159.289 C95.531,158.613 96.207,156.363 96.882,155.463 C97.557,154.563 100.934,153.437 101.834,152.537 C102.734,151.637 104.31,150.512 105.885,150.061 C107.46,149.61 108.812,149.161 109.937,149.161 C111.062,149.161 113.988,146.685 114.438,149.161 C114.888,151.637 116.915,150.736 118.04,150.961 C119.165,151.186 119.391,152.312 121.191,149.386 C122.991,146.46 124.792,145.559 124.792,146.234 C124.792,146.91 127.718,146.01 128.168,146.685 C128.618,147.36 129.519,146.234 131.094,147.585 C132.669,148.936 134.92,149.161 134.695,149.835 C134.47,150.51 135.595,150.51 135.595,151.186 C135.595,151.862 136.496,149.61 136.496,153.661 C136.496,157.712 137.621,160.189 137.621,160.189 C137.621,160.189 139.196,163.566 139.871,162.89 C140.546,162.214 141.896,160.415 141.896,160.415 C141.896,160.415 144.147,159.064 142.572,154.337 C140.996,149.611 142.122,148.26 141.672,146.684 C141.222,145.108 141.221,144.207 143.922,142.182 C146.623,140.157 153.15,135.655 154.726,134.755 C156.302,133.855 159.902,131.379 159.902,131.379 C159.902,131.379 161.252,130.704 161.478,128.903 C161.704,127.102 165.979,123.951 166.205,123.051 C166.431,122.151 169.357,119.901 169.357,119.901 C169.357,119.901 172.507,118.099 172.282,116.975 C172.057,115.85 176.334,113.825 177.009,113.825 C177.684,113.825 181.286,114.949 181.286,112.923 C181.286,110.898 181.286,110.447 183.537,108.647 C185.788,106.847 188.713,104.145 189.839,104.145 C190.965,104.145 194.791,102.121 196.366,101.67 C197.941,101.219 202.894,98.968 198.392,101.67 C193.89,104.372 196.816,102.795 195.916,105.046 C195.016,107.297 194.34,110.223 198.617,106.846 C202.894,103.469 202.668,102.794 204.244,102.57 C205.82,102.345 204.694,103.245 208.07,102.119 C211.446,100.993 211.672,100.544 211.672,100.544 C211.672,100.544 213.248,99.193 212.347,98.519 C211.447,97.843 213.248,96.943 209.871,98.293 C206.494,99.643 206.72,99.869 204.469,99.193 C202.218,98.517 198.842,98.742 201.318,96.491 C203.794,94.24 206.945,93.565 204.919,92.665 C202.894,91.765 197.717,92.891 197.042,93.115 C196.366,93.34 194.791,92.89 193.44,93.115 C192.089,93.34 192.54,91.316 193.44,90.865 C194.34,90.414 197.267,89.063 200.868,88.163 C204.469,87.263 213.248,87.038 215.273,87.038 C217.298,87.038 219.999,87.489 221.575,86.363 C223.151,85.237 226.302,83.438 226.752,82.536 C227.202,81.634 229.003,80.286 229.003,80.286 C229.003,80.286 231.028,78.26 229.903,77.36 C228.778,76.46 227.652,74.434 226.752,74.884 C225.852,75.334 226.528,78.036 224.727,75.109 C222.926,72.184 223.151,71.733 222.251,71.058 C221.351,70.383 220.45,70.832 221.126,67.682 C221.802,64.532 221.576,63.18 221.576,63.18 C221.576,63.18 222.251,60.48 221.576,60.255 C220.9,60.029 220.451,59.355 219.326,60.029 C218.2,60.704 211.898,63.856 210.548,64.531 C209.197,65.206 207.396,61.83 208.071,60.255 C208.747,58.678 208.296,59.579 207.396,57.329 C206.496,55.079 202.895,54.627 201.544,54.627 C200.193,54.627 197.043,52.601 196.142,53.952 C195.241,55.303 190.516,59.578 189.614,60.029 C188.712,60.48 187.364,56.203 186.689,63.18 C186.013,70.159 189.165,72.184 185.564,72.634 C181.963,73.084 178.811,75.109 178.811,75.109 C178.811,75.109 175.886,75.335 175.886,77.135 C175.886,78.935 174.761,83.212 173.409,83.662 C172.057,84.112 168.682,83.438 167.557,82.087 C166.432,80.736 167.782,75.785 167.782,75.785 L169.808,73.759 C169.808,73.759 155.403,71.509 155.627,70.608 C155.853,69.708 151.351,68.133 150.901,66.782 C150.451,65.431 150.225,62.505 150.676,61.38 C151.127,60.255 157.203,54.853 160.354,53.728 C163.505,52.603 168.907,50.127 170.483,49.676 C172.059,49.225 174.759,49.451 175.66,48.326 C176.561,47.201 176.785,45.175 176.785,45.175 C176.785,45.175 176.335,42.023 177.235,42.473 C178.135,42.923 179.711,43.599 179.936,44.274 C180.161,44.949 180.162,46.525 181.737,44.723 C183.312,42.921 185.339,42.247 187.139,41.348 C188.939,40.449 191.64,40.673 193.217,39.773 C194.794,38.873 197.493,37.972 197.718,35.721 C197.943,33.47 197.043,34.146 195.917,33.92 C194.792,33.696 196.367,34.146 192.541,35.946 C188.715,37.746 189.84,36.396 187.139,37.746 C184.438,39.096 184.212,39.322 183.988,38.197 C183.762,37.071 184.438,35.271 184.438,35.271 C184.438,35.271 184.664,35.045 183.088,34.596 C181.512,34.147 181.512,34.821 181.287,32.796 C181.062,30.77 182.412,27.844 180.162,28.744 C177.912,29.644 175.886,28.069 174.31,32.57 C172.734,37.071 167.332,41.799 165.981,40.673 C164.63,39.547 164.406,39.322 163.28,39.322 C162.154,39.322 160.579,37.972 158.553,37.747 C156.527,37.522 150.449,37.522 148.875,37.747 C147.299,37.973 145.499,36.847 144.147,38.198 C142.795,39.549 140.772,41.349 140.772,42.025 C140.772,42.701 138.746,39.548 138.071,39.774 C137.396,40 135.594,38.874 133.57,38.874 C131.544,38.874 130.193,37.748 129.519,37.748 C128.844,37.748 130.193,35.947 129.519,35.722 C128.844,35.498 114.212,35.047 114.212,35.047 C114.212,35.047 109.486,33.247 107.686,33.472 C105.886,33.697 100.934,33.921 97.106,34.597 C93.278,35.273 87.652,37.523 85.852,37.748 C84.051,37.974 80,37.974 79.325,36.848 C78.649,35.723 79.55,35.948 78.649,35.723 C77.748,35.498 78.425,35.048 76.399,33.473 C74.373,31.898 77.3,30.547 73.248,30.547 C69.196,30.547 66.721,30.321 63.12,30.547 C59.519,30.773 52.091,32.572 51.191,32.347 C50.291,32.122 43.088,33.473 41.962,32.798 C40.837,32.122 35.209,35.273 34.085,35.048 C32.96,34.823 28.683,35.274 27.558,35.949 C26.433,36.624 21.03,37.974 22.831,39.1 C24.632,40.226 24.406,41.35 24.631,42.026 C24.856,42.702 22.831,44.276 22.831,44.276 C22.831,44.276 22.38,44.276 19.905,43.376 C17.43,42.476 14.728,42.026 13.602,42.701 C12.476,43.376 10.451,44.728 10.901,45.628 C11.351,46.528 14.502,48.554 14.953,47.878 C15.404,47.202 16.529,45.853 17.879,46.078 C19.23,46.304 21.256,45.178 19.455,47.429 C17.654,49.68 16.078,50.805 14.953,51.031 C13.828,51.255 11.127,51.48 8.651,51.706 C6.175,51.932 6.399,50.806 4.149,53.057 C1.899,55.308 0.998,53.957 0.548,56.433 C0.098,58.909 -0.352,58.908 0.548,59.584 C1.448,60.26 -1.253,60.484 0.773,61.159 C2.798,61.835 5.274,62.51 5.049,63.184 C4.823,63.86 7.3,62.285 5.949,64.084 C4.598,65.883 3.699,67.46 6.399,65.66 C9.099,63.86 10.675,65.209 12.926,64.084 C15.177,62.959 17.428,62.734 18.778,61.834 C20.128,60.934 20.804,59.584 22.83,58.907 C24.856,58.23 23.505,59.133 23.73,60.258 C23.955,61.383 23.73,61.608 25.081,60.707 C26.432,59.806 26.431,60.483 28.232,59.357 C30.033,58.231 32.058,57.106 33.409,57.781 C34.759,58.457 35.209,58.457 36.11,58.457 C37.011,58.457 34.985,58.231 37.01,58.457 C39.036,58.681 36.11,57.781 42.862,59.357 C49.614,60.933 51.416,59.807 51.865,62.283 C52.314,64.759 53.216,62.057 54.341,63.633 C55.466,65.209 56.142,63.859 56.817,66.559 C57.492,69.259 56.817,76.688 56.367,77.588 C55.917,78.488 55.692,78.488 55.917,80.514 C56.142,82.539 58.843,92.219 57.943,92.893 C57.043,93.567 55.017,93.793 55.017,93.793 L53.892,97.844 C53.892,97.844 52.092,101.22 50.516,103.021 C48.94,104.822 46.915,107.073 45.789,108.647 C44.664,110.223 43.763,112.925 42.188,114.5 C40.613,116.075 39.262,115.4 39.712,118.776 C40.162,122.152 39.712,125.753 40.162,128.23 C40.612,130.707 41.738,134.082 42.638,135.433 C43.538,136.784 44.214,136.783 45.789,137.908 C47.365,139.033 49.391,140.385 49.165,141.51 C48.939,142.635 49.39,149.614 49.39,149.614 C49.39,149.614 50.741,151.864 50.965,154.34 C51.191,156.817 52.766,159.292 52.766,159.292 L54.117,162.219 C54.117,162.219 54.792,162.445 55.693,164.244 C56.594,166.043 56.593,166.045 56.818,166.944 C57.044,167.846 57.044,167.62 57.044,167.846 C57.044,168.07 56.818,164.019 56.368,162.893 C55.918,161.767 55.918,160.418 55.468,159.067 C55.018,157.716 55.693,156.14 54.343,154.115 C52.993,152.09 52.993,151.864 52.318,149.838 C51.643,147.813 50.742,145.562 51.643,145.111 C52.544,144.66 53.218,141.736 55.019,145.111 C56.82,148.486 57.045,147.588 57.27,150.289 C57.494,152.99 58.17,153.891 58.845,155.015 C59.52,156.14 61.095,159.968 61.996,161.542 C62.896,163.118 61.996,160.642 64.021,163.793 C66.047,166.944 66.273,167.619 67.398,170.095 C68.523,172.571 69.199,172.571 69.874,174.371 C70.549,176.171 70.099,175.722 69.648,177.747 C69.197,179.772 70.098,182.024 70.098,182.024 C70.098,182.024 73.249,183.149 73.474,183.824 C73.699,184.499 76.85,185.624 77.301,186.525 C77.752,187.426 80.677,188.55 80.677,188.55 C80.677,188.55 83.153,190.126 84.052,190.576 C84.951,191.026 87.655,191.477 87.655,191.477 C87.655,191.477 89.455,191.928 90.13,192.152 C90.805,192.377 92.831,192.377 92.831,192.377 C92.831,192.377 94.632,191.027 95.307,191.477 C95.982,191.927 97.558,190.576 98.233,191.701 C98.908,192.826 100.259,192.827 100.934,193.728 C101.609,194.629 102.284,194.628 103.41,195.753 C104.536,196.878 105.661,196.653 106.786,197.553 C107.911,198.453 108.811,198.453 110.162,198.453 C111.513,198.453 111.512,198.453 112.413,198.679 C113.314,198.905 113.763,198.003 114.663,199.13 C115.563,200.257 116.238,200.93 116.913,202.055 C117.588,203.18 119.164,203.18 119.389,204.981 C119.614,206.782 120.064,206.558 120.064,208.132 C120.064,209.708 120.964,210.383 121.64,210.834 C122.314,211.283 124.79,213.533 124.79,213.533 L128.166,214.209 L130.867,216.235 L133.796,217.132 L133.796,217.132 Z" id="Shape"></path>
            </g>
        </g>
    </g>
</svg>