<svg viewBox="0 0 232 190" xmlns="http://www.w3.org/2000/svg">
  <g id="Page-1" fill="none" fill-rule="evenodd">
    <g id="world-map-146505" fill-rule="nonzero" stroke="#000" fill="#FFF">
      <g id="Group">
        <path d="M134.796 189.132l-1.575-2.25s-.675-1.352-1.801-1.576c-1.126-.224-3.602-3.151-3.602-3.151s-1.125-.9-1.125-2.475c0-1.575-.901-4.051-.226-6.752.675-2.701.901-6.077.676-6.978-.226-.9 1.125-1.125-.45-2.026-1.575-.901-4.727-1.125-6.753-1.125-2.025 0-4.502.676-4.952.9-.45.225 2.476-6.752 2.926-7.877.45-1.125 2.476-6.078 2.476-6.752 0-.676.675-.901-.675-1.8s-3.601-1.351-4.952-.676c-1.35.676-1.125-.9-2.25 1.8s-2.251 5.628-3.602 6.078c-1.351.45-4.051 1.801-4.051 1.801s-3.376-.225-4.502-.45-5.852-2.701-6.752-4.276c-.9-1.576-1.35-4.953-1.35-6.527 0-1.576 2.475-6.302 2.25-7.428-.225-1.126 2.477-5.627 2.251-6.303-.226-.676.45-2.926 1.125-3.826.675-.9 4.052-2.026 4.952-2.926.9-.9 2.476-2.025 4.051-2.476 1.575-.451 2.927-.9 4.052-.9 1.125 0 4.051-2.476 4.501 0 .45 2.476 2.477 1.575 3.602 1.8 1.125.225 1.351 1.351 3.151-1.575 1.8-2.926 3.601-3.827 3.601-3.152 0 .676 2.926-.224 3.376.451.45.675 1.351-.451 2.926.9 1.575 1.351 3.826 1.576 3.601 2.25-.225.675.9.675.9 1.351 0 .676.901-1.576.901 2.475s1.125 6.528 1.125 6.528 1.575 3.377 2.25 2.701c.675-.676 2.025-2.475 2.025-2.475s2.251-1.351.676-6.078c-1.576-4.726-.45-6.077-.9-7.653-.45-1.576-.451-2.477 2.25-4.502s9.228-6.527 10.804-7.427c1.576-.9 5.176-3.376 5.176-3.376s1.35-.675 1.576-2.476c.226-1.801 4.501-4.952 4.727-5.852.226-.9 3.152-3.15 3.152-3.15s3.15-1.802 2.925-2.926c-.225-1.125 4.052-3.15 4.727-3.15.675 0 4.277 1.124 4.277-.902 0-2.025 0-2.476 2.251-4.276 2.251-1.8 5.176-4.502 6.302-4.502 1.126 0 4.952-2.024 6.527-2.475 1.575-.451 6.528-2.702 2.026 0s-1.576 1.125-2.476 3.376c-.9 2.251-1.576 5.177 2.701 1.8s4.051-4.052 5.627-4.276c1.576-.225.45.675 3.826-.451 3.376-1.126 3.602-1.575 3.602-1.575s1.576-1.351.675-2.025c-.9-.676.901-1.576-2.476-.226s-3.151 1.576-5.402.9c-2.251-.676-5.627-.451-3.151-2.702s5.627-2.926 3.601-3.826c-2.025-.9-7.202.226-7.877.45-.676.225-2.251-.225-3.602 0s-.9-1.799 0-2.25c.9-.451 3.827-1.802 7.428-2.702 3.601-.9 12.38-1.125 14.405-1.125 2.025 0 4.726.451 6.302-.675 1.576-1.126 4.727-2.925 5.177-3.827.45-.902 2.251-2.25 2.251-2.25s2.025-2.026.9-2.926c-1.125-.9-2.251-2.926-3.151-2.476-.9.45-.224 3.152-2.025.225-1.801-2.925-1.576-3.376-2.476-4.051-.9-.675-1.801-.226-1.125-3.376.676-3.15.45-4.502.45-4.502s.675-2.7 0-2.925c-.676-.226-1.125-.9-2.25-.226-1.126.675-7.428 3.827-8.778 4.502-1.351.675-3.152-2.701-2.477-4.276.676-1.577.225-.676-.675-2.926s-4.501-2.702-5.852-2.702-4.501-2.026-5.402-.675c-.901 1.351-5.626 5.626-6.528 6.077-.902.451-2.25-3.826-2.925 3.151-.676 6.979 2.476 9.004-1.125 9.454-3.601.45-6.753 2.475-6.753 2.475s-2.925.226-2.925 2.026c0 1.8-1.125 6.077-2.477 6.527-1.352.45-4.727-.224-5.852-1.575s.225-6.302.225-6.302l2.026-2.026s-14.405-2.25-14.181-3.151c.226-.9-4.276-2.475-4.726-3.826-.45-1.351-.676-4.277-.225-5.402.451-1.125 6.527-6.527 9.678-7.652 3.151-1.125 8.553-3.601 10.129-4.052 1.576-.451 4.276-.225 5.177-1.35.901-1.125 1.125-3.151 1.125-3.151s-.45-3.152.45-2.702c.9.45 2.476 1.126 2.701 1.801.225.675.226 2.251 1.801.449 1.575-1.802 3.602-2.476 5.402-3.375 1.8-.899 4.501-.675 6.078-1.575 1.577-.9 4.276-1.801 4.501-4.052.225-2.251-.675-1.575-1.801-1.801-1.125-.224.45.226-3.376 2.026-3.826 1.8-2.701.45-5.402 1.8s-2.927 1.576-3.151.451c-.226-1.126.45-2.926.45-2.926s.226-.226-1.35-.675c-1.576-.449-1.576.225-1.801-1.8-.225-2.026 1.125-4.952-1.125-4.052-2.25.9-4.276-.675-5.852 3.826-1.576 4.501-6.978 9.229-8.329 8.103-1.351-1.126-1.575-1.351-2.701-1.351-1.126 0-2.701-1.35-4.727-1.575-2.026-.225-8.104-.225-9.678 0-1.576.226-3.376-.9-4.728.451-1.352 1.351-3.375 3.151-3.375 3.827 0 .676-2.026-2.477-2.701-2.251-.675.226-2.477-.9-4.501-.9-2.026 0-3.377-1.126-4.051-1.126-.675 0 .674-1.801 0-2.026-.675-.224-15.307-.675-15.307-.675s-4.726-1.8-6.526-1.575c-1.8.225-6.752.449-10.58 1.125-3.828.676-9.454 2.926-11.254 3.151-1.801.226-5.852.226-6.527-.9-.676-1.125.225-.9-.676-1.125-.901-.225-.224-.675-2.25-2.25s.901-2.926-3.151-2.926-6.527-.226-10.128 0-11.029 2.025-11.929 1.8c-.9-.225-8.103 1.126-9.229.451-1.125-.676-6.753 2.475-7.877 2.25-1.125-.225-5.402.226-6.527.901S22.03 9.974 23.831 11.1c1.801 1.126 1.575 2.25 1.8 2.926.225.676-1.8 2.25-1.8 2.25s-.451 0-2.926-.9-5.177-1.35-6.303-.675c-1.126.675-3.151 2.027-2.701 2.927.45.9 3.601 2.926 4.052 2.25.451-.676 1.576-2.025 2.926-1.8 1.351.226 3.377-.9 1.576 1.351-1.801 2.251-3.377 3.376-4.502 3.602-1.125.224-3.826.449-6.302.675-2.476.226-2.252-.9-4.502 1.351s-3.151.9-3.601 3.376c-.45 2.476-.9 2.475 0 3.151.9.676-1.801.9.225 1.575 2.025.676 4.501 1.351 4.276 2.025-.226.676 2.251-.899.9.9s-2.25 3.376.45 1.576c2.7-1.8 4.276-.451 6.527-1.576 2.251-1.125 4.502-1.35 5.852-2.25 1.35-.9 2.026-2.25 4.052-2.927s.675.226.9 1.351c.225 1.125 0 1.35 1.351.449s1.35-.224 3.151-1.35c1.801-1.126 3.826-2.251 5.177-1.576 1.35.676 1.8.676 2.701.676s-1.125-.226.9 0c2.026.224-.9-.676 5.852.9 6.752 1.576 8.554.45 9.003 2.926.449 2.476 1.351-.226 2.476 1.35s1.801.226 2.476 2.926 0 10.129-.45 11.029c-.45.9-.675.9-.45 2.926.225 2.025 2.926 11.705 2.026 12.379-.9.674-2.926.9-2.926.9l-1.125 4.051s-1.8 3.376-3.376 5.177c-1.576 1.801-3.601 4.052-4.727 5.626-1.125 1.576-2.026 4.278-3.601 5.853-1.575 1.575-2.926.9-2.476 4.276.45 3.376 0 6.977.45 9.454.45 2.477 1.576 5.852 2.476 7.203.9 1.351 1.576 1.35 3.151 2.475 1.576 1.125 3.602 2.477 3.376 3.602-.226 1.125.225 8.104.225 8.104s1.351 2.25 1.575 4.726c.226 2.477 1.801 4.952 1.801 4.952l1.351 2.927s.675.226 1.576 2.025.9 1.801 1.125 2.7c.226.902.226.676.226.902 0 .224-.226-3.827-.676-4.953-.45-1.126-.45-2.475-.9-3.826s.225-2.927-1.125-4.952-1.35-2.251-2.025-4.277c-.675-2.025-1.576-4.276-.675-4.727.901-.451 1.575-3.375 3.376 0s2.026 2.477 2.251 5.178c.224 2.701.9 3.602 1.575 4.726.675 1.125 2.25 4.953 3.151 6.527.9 1.576 0-.9 2.025 2.251 2.026 3.151 2.252 3.826 3.377 6.302 1.125 2.476 1.801 2.476 2.476 4.276.675 1.8.225 1.351-.226 3.376s.45 4.277.45 4.277 3.151 1.125 3.376 1.8c.225.675 3.376 1.8 3.827 2.701.451.901 3.376 2.025 3.376 2.025s2.476 1.576 3.375 2.026c.899.45 3.603.901 3.603.901s1.8.451 2.475.675c.675.225 2.701.225 2.701.225s1.801-1.35 2.476-.9c.675.45 2.251-.901 2.926.224.675 1.125 2.026 1.126 2.701 2.027.675.901 1.35.9 2.476 2.025s2.251.9 3.376 1.8 2.025.9 3.376.9 1.35 0 2.251.226c.901.226 1.35-.676 2.25.451.9 1.127 1.575 1.8 2.25 2.925.675 1.125 2.251 1.125 2.476 2.926.225 1.801.675 1.577.675 3.151 0 1.576.9 2.251 1.576 2.702.674.449 3.15 2.699 3.15 2.699l3.376.676 2.701 2.026 2.929.897z" id="Shape" class="sWxrwvsy_0"/>
      </g>
    </g>
  </g>
  <style>
    .sWxrwvsy_0{stroke-dasharray:1191 1193;stroke-dashoffset:1192;animation:sWxrwvsy_draw 5000ms linear 0ms forwards;}@keyframes sWxrwvsy_draw{100%{stroke-dashoffset:0;}}@keyframes sWxrwvsy_fade{0%{stroke-opacity:1;}95.65217391304348%{stroke-opacity:1;}100%{stroke-opacity:0;}}
  </style>
</svg>
