<svg viewBox="0 0 133 200" xmlns="http://www.w3.org/2000/svg">
  <g id="Page-1" fill="none" fill-rule="evenodd">
    <g id="world-map-146505" fill-rule="nonzero" stroke="#000" fill="#FFF">
      <g id="Group">
        <path d="M61.868 198.35c-1.576-.9-4.952-2.476-6.077-3.376-1.125-.9-4.501-5.854-4.501-5.854l-2.477-4.727s-2.925-3.601-2.25-4.951c.675-1.351 2.026-2.251 2.026-2.926 0-.675 1.35-2.477.224-3.151-1.125-.676-1.125-.9-1.801-2.926-.675-2.025-.675-3.828-1.575-4.277-.9-.449-1.576-3.376-2.476-3.601-.9-.225-1.801-1.801-1.801-1.801l-1.351-18.232s-.451-8.327-.9-10.129c-.449-1.802.675-5.626-.451-9.003-1.126-3.377.226-7.427-.45-8.778-.676-1.351.45-5.176-.225-8.777-.675-3.601 2.701-8.103 0-9.453-2.701-1.35-.675-3.377-2.926-3.377-2.251 0-3.826-1.126-5.852-2.7-2.026-1.576-5.853-4.503-6.978-5.629-1.125-1.124-4.727-4.051-5.852-4.951-1.125-.9-2.251-4.727-3.151-5.853-.9-1.124-1.35-4.5-2.701-6.526-1.351-2.025-3.151-5.401-3.602-6.077-.451-.676-5.402-6.527-5.402-6.527l.45-3.601s3.376-2.026 2.926-2.701c-.45-.675.226-1.352-1.351-2.701s-1.351-3.828 0-4.952c1.351-1.127 3.376-4.728 3.376-4.728l3.376-5.626s2.702-2.928 2.702-4.953c0-2.025 3.826-3.375 1.575-5.176-2.251-1.801-1.125-3.377-1.801-4.728-.676-1.351-.225-2.25 1.801-3.601S20 5.679 20 5.679s2.701-.676 3.376-.676c.675 0 1.801-7.204 3.827-2.477s2.701 2.251 2.026 5.627c-.675 3.376.9 2.702 1.8 1.802.9-.9-.451.675 1.35-3.378 1.801-4.053 1.126-5.401 2.251-4.275 1.125 1.126 1.575 1.351 3.601 2.026 2.025.675 2.701.449 3.375 1.8.675 1.351.451-.45 4.277.226s9.228-1.351 8.553.899c-.675 2.251-2.026-.225 1.125 2.251s3.602 2.926 5.402 3.377c1.8.451 3.376.225 6.078 2.926 2.702 2.701 3.376 2.926 4.051 4.275.675 1.349 1.8.451 2.926 1.801 1.126 1.35 2.701 1.352 4.276 1.352 1.575 0 0-1.352 2.476.45s4.277 2.024 5.402 5.626c1.125 3.602 3.376 3.377 1.575 6.979-1.801 3.602-5.401 5.177-3.826 4.952 1.575-.226 4.502-1.577 5.402-1.351.9.224 1.35-.675 2.701 0s1.576-.9 1.351.675c-.225 1.575-.226 0-.226 1.576s-.45-1.576 2.251-.9 1.125-1.352 4.276 1.575 3.152 2.027 4.276 3.602c1.126 1.574 2.251-.899 2.927-.225.676.674 2.701.224 4.727.675 2.026.451.675-1.35 3.827.675 3.15 2.025 6.302 1.35 6.977 3.151.675 1.801 2.477 1.125 3.376 2.251s1.35-.451 2.251 1.126c.9 1.574 3.602 1.124 3.151 2.699-.451 1.577.674.676.224 2.926-.45 2.25-2.026 5.854-3.375 6.753-1.349.899-1.35 2.026-2.251 3.151-.901 1.125-.675-1.125-1.801 2.026s-.9 3.602-1.8 6.527c-.9 2.925-.225 0-.9 2.926s-.225 4.727-.9 8.104c-.675 3.377-.45 3.376-.9 5.852-.45 2.476 1.125-1.124-.901 4.051-2.025 5.178-2.25 4.951-2.925 7.203-.676 2.252.225.45-2.251 1.801s-1.125.9-4.052 1.801c-2.925.9-6.527 1.802-7.652 2.026-1.125.224-5.627 1.575-4.276 4.275s1.351 3.152 0 6.529-3.376 4.502-3.376 6.076c0 1.575-.901 3.15-1.125 4.276-.226 1.126 2.025-1.126-.675 2.251s-2.926 2.476-3.827 4.502c-.9 2.025 0 .449-.9 2.025-.9 1.576-3.151 2.25-3.151 2.25s.224 1.126-.676.676c-.9-.45-.675.225-4.052-.676s-3.826-3.149-4.276-1.575c-.45 1.575.225 2.477 2.251 4.052 2.025 1.576 5.402 2.025 4.501 3.602-.901 1.577-.9 1.576-1.575 2.476-.676.901.9.225-.676.901s-2.476 3.602-3.151 3.602c-.675 0-1.126 1.125-2.026.675-.9-.45-3.15-2.026-3.601-1.126-.451.9-1.351-1.126-1.126 2.025.225 3.151.676 4.952-.45 5.628-1.126.676-3.827 0-3.827 0l-.45-1.126-1.575.45s-.675 2.701.45 3.151c1.125.45.9.899 2.025 2.25s.451 3.827.451 3.827 0 .676-1.125 1.801-1.576 2.026-1.801 2.701c-.226.675-1.576 3.602.45 3.376 2.025-.226 3.602-1.351 3.602 2.251s.9 2.702-.225 5.177c-1.126 2.476-2.026 2.701-2.251 4.951-.224 2.251.226 2.476.676 3.827.45 1.351 1.576.675.45 1.351-1.123.675-4.499.001-4.499.001z" id="Shape" class="GTvZrHpa_0"/>
      </g>
    </g>
  </g>
  <style>
    .GTvZrHpa_0{stroke-dasharray:608 610;stroke-dashoffset:609;animation:GTvZrHpa_draw 5000ms linear 0ms forwards;}@keyframes GTvZrHpa_draw{100%{stroke-dashoffset:0;}}@keyframes GTvZrHpa_fade{0%{stroke-opacity:1;}95.65217391304348%{stroke-opacity:1;}100%{stroke-opacity:0;}}
  </style>
</svg>
