<?xml version="1.0" encoding="UTF-8"?>
<svg width="133px" height="200px" viewBox="0 0 133 200" version="1.1" xmlns="http://www.w3.org/2000/svg" xmlns:xlink="http://www.w3.org/1999/xlink">
    <!-- Generator: Sketch 42 (36781) - http://www.bohemiancoding.com/sketch -->
    <title>Shape</title>
    <desc>Created with Sketch.</desc>
    <defs></defs>
    <g id="Page-1" stroke="none" stroke-width="1" fill="none" fill-rule="evenodd">
        <g id="world-map-146505" transform="translate(-130.000000, -202.000000)" fill-rule="nonzero" stroke="#000000" fill="#FFFFFF">
            <g id="Group">
                <path d="M191.868,400.35 C190.292,399.45 186.916,397.874 185.791,396.974 C184.666,396.074 181.29,391.12 181.29,391.12 L178.813,386.393 C178.813,386.393 175.888,382.792 176.563,381.442 C177.238,380.091 178.589,379.191 178.589,378.516 C178.589,377.841 179.939,376.039 178.813,375.365 C177.688,374.689 177.688,374.465 177.012,372.439 C176.337,370.414 176.337,368.611 175.437,368.162 C174.537,367.713 173.861,364.786 172.961,364.561 C172.061,364.336 171.16,362.76 171.16,362.76 L169.809,344.528 C169.809,344.528 169.358,336.201 168.909,334.399 C168.46,332.597 169.584,328.773 168.458,325.396 C167.332,322.019 168.684,317.969 168.008,316.618 C167.332,315.267 168.458,311.442 167.783,307.841 C167.108,304.24 170.484,299.738 167.783,298.388 C165.082,297.038 167.108,295.011 164.857,295.011 C162.606,295.011 161.031,293.885 159.005,292.311 C156.979,290.735 153.152,287.808 152.027,286.682 C150.902,285.558 147.3,282.631 146.175,281.731 C145.05,280.831 143.924,277.004 143.024,275.878 C142.124,274.754 141.674,271.378 140.323,269.352 C138.972,267.327 137.172,263.951 136.721,263.275 C136.27,262.599 131.319,256.748 131.319,256.748 L131.769,253.147 C131.769,253.147 135.145,251.121 134.695,250.446 C134.245,249.771 134.921,249.094 133.344,247.745 C131.767,246.396 131.993,243.917 133.344,242.793 C134.695,241.666 136.72,238.065 136.72,238.065 L140.096,232.439 C140.096,232.439 142.798,229.511 142.798,227.486 C142.798,225.461 146.624,224.111 144.373,222.31 C142.122,220.509 143.248,218.933 142.572,217.582 C141.896,216.231 142.347,215.332 144.373,213.981 C146.399,212.63 150,207.679 150,207.679 C150,207.679 152.701,207.003 153.376,207.003 C154.051,207.003 155.177,199.799 157.203,204.526 C159.229,209.253 159.904,206.777 159.229,210.153 C158.554,213.529 160.129,212.855 161.029,211.955 C161.929,211.055 160.578,212.63 162.379,208.577 C164.18,204.524 163.505,203.176 164.63,204.302 C165.755,205.428 166.205,205.653 168.231,206.328 C170.256,207.003 170.932,206.777 171.606,208.128 C172.281,209.479 172.057,207.678 175.883,208.354 C179.709,209.03 185.111,207.003 184.436,209.253 C183.761,211.504 182.41,209.028 185.561,211.504 C188.712,213.98 189.163,214.43 190.963,214.881 C192.763,215.332 194.339,215.106 197.041,217.807 C199.743,220.508 200.417,220.733 201.092,222.082 C201.767,223.431 202.892,222.533 204.018,223.883 C205.144,225.233 206.719,225.235 208.294,225.235 C209.869,225.235 208.294,223.883 210.77,225.685 C213.246,227.487 215.047,227.709 216.172,231.311 C217.297,234.913 219.548,234.688 217.747,238.29 C215.946,241.892 212.346,243.467 213.921,243.242 C215.496,243.016 218.423,241.665 219.323,241.891 C220.223,242.115 220.673,241.216 222.024,241.891 C223.375,242.566 223.6,240.991 223.375,242.566 C223.15,244.141 223.149,242.566 223.149,244.142 C223.149,245.718 222.699,242.566 225.4,243.242 C228.101,243.918 226.525,241.89 229.676,244.817 C232.827,247.744 232.828,246.844 233.952,248.419 C235.078,249.993 236.203,247.52 236.879,248.194 C237.555,248.868 239.58,248.418 241.606,248.869 C243.632,249.32 242.281,247.519 245.433,249.544 C248.583,251.569 251.735,250.894 252.41,252.695 C253.085,254.496 254.887,253.82 255.786,254.946 C256.685,256.072 257.136,254.495 258.037,256.072 C258.937,257.646 261.639,257.196 261.188,258.771 C260.737,260.348 261.862,259.447 261.412,261.697 C260.962,263.947 259.386,267.551 258.037,268.45 C256.688,269.349 256.687,270.476 255.786,271.601 C254.885,272.726 255.111,270.476 253.985,273.627 C252.859,276.778 253.085,277.229 252.185,280.154 C251.285,283.079 251.96,280.154 251.285,283.08 C250.61,286.006 251.06,287.807 250.385,291.184 C249.71,294.561 249.935,294.56 249.485,297.036 C249.035,299.512 250.61,295.912 248.584,301.087 C246.559,306.265 246.334,306.038 245.659,308.29 C244.983,310.542 245.884,308.74 243.408,310.091 C240.932,311.442 242.283,310.991 239.356,311.892 C236.431,312.792 232.829,313.694 231.704,313.918 C230.579,314.142 226.077,315.493 227.428,318.193 C228.779,320.893 228.779,321.345 227.428,324.722 C226.077,328.099 224.052,329.224 224.052,330.798 C224.052,332.373 223.151,333.948 222.927,335.074 C222.701,336.2 224.952,333.948 222.252,337.325 C219.552,340.702 219.326,339.801 218.425,341.827 C217.525,343.852 218.425,342.276 217.525,343.852 C216.625,345.428 214.374,346.102 214.374,346.102 C214.374,346.102 214.598,347.228 213.698,346.778 C212.798,346.328 213.023,347.003 209.646,346.102 C206.269,345.201 205.82,342.953 205.37,344.527 C204.92,346.102 205.595,347.004 207.621,348.579 C209.646,350.155 213.023,350.604 212.122,352.181 C211.221,353.758 211.222,353.757 210.547,354.657 C209.871,355.558 211.447,354.882 209.871,355.558 C208.295,356.234 207.395,359.16 206.72,359.16 C206.045,359.16 205.594,360.285 204.694,359.835 C203.794,359.385 201.544,357.809 201.093,358.709 C200.642,359.609 199.742,357.583 199.967,360.734 C200.192,363.885 200.643,365.686 199.517,366.362 C198.391,367.038 195.69,366.362 195.69,366.362 L195.24,365.236 L193.665,365.686 C193.665,365.686 192.99,368.387 194.115,368.837 C195.24,369.287 195.015,369.736 196.14,371.087 C197.265,372.438 196.591,374.914 196.591,374.914 C196.591,374.914 196.591,375.59 195.466,376.715 C194.341,377.84 193.89,378.741 193.665,379.416 C193.439,380.091 192.089,383.018 194.115,382.792 C196.14,382.566 197.717,381.441 197.717,385.043 C197.717,388.645 198.617,387.745 197.492,390.22 C196.366,392.696 195.466,392.921 195.241,395.171 C195.017,397.422 195.467,397.647 195.917,398.998 C196.367,400.349 197.493,399.673 196.367,400.349 C195.244,401.024 191.868,400.35 191.868,400.35 L191.868,400.35 Z" id="Shape"></path>
            </g>
        </g>
    </g>
</svg>